<svg version="1.1" id="Layer_1" xmlns="http://www.w3.org/2000/svg" xmlns:xlink="http://www.w3.org/1999/xlink" x="0px" y="0px"
	 width="100%" viewBox="0 0 192 192" enable-background="new 0 0 192 192" xml:space="preserve">
<path fill="#000000" opacity="1.000000" stroke="none" 
	d="
M1.000000,73.000000 
	C1.000000,48.666672 1.000000,24.833345 1.000000,1.000013 
	C64.999977,1.000009 128.999954,1.000009 192.999954,1.000004 
	C192.999969,64.999962 192.999969,128.999924 192.999985,192.999908 
	C129.000046,192.999939 65.000107,192.999939 1.000077,192.999969 
	C1.000000,153.166672 1.000000,113.333336 1.000000,73.000000 
M14.163754,87.666008 
	C15.757171,88.701538 17.594875,89.494659 18.903208,90.813095 
	C25.878471,97.842201 32.656513,105.066925 39.626598,112.101295 
	C48.030941,120.583138 56.618195,128.883896 65.011467,137.376511 
	C69.833000,142.255096 75.209122,143.778976 79.079079,140.299026 
	C86.984070,133.190704 94.554016,125.709778 101.995422,118.635704 
	C108.954506,125.549591 116.089134,132.874954 123.499573,139.909775 
	C127.827278,144.018127 132.841370,144.249146 136.574829,140.894638 
	C141.385300,136.572449 146.138962,132.177780 150.746918,127.641472 
	C158.354324,120.152359 165.766785,112.465179 173.376083,104.978027 
	C177.944153,100.483276 179.993561,91.600334 176.673920,88.188019 
	C170.650314,81.996277 164.334274,76.090149 158.218063,69.986870 
	C155.461761,67.236412 152.892334,64.298683 149.837860,61.015701 
	C153.503281,61.015701 156.332932,61.015717 159.162582,61.015697 
	C162.161179,61.015675 165.163437,61.110847 168.157654,60.996414 
	C175.096405,60.731228 179.291138,56.281509 177.804733,49.809219 
	C177.213287,47.233860 174.602997,44.830265 172.388687,42.971722 
	C164.267761,36.155571 158.978790,26.142246 148.610779,21.849133 
	C148.237808,21.694700 148.031784,20.710896 148.045181,20.120361 
	C148.119629,16.835268 145.881485,16.969948 143.625305,16.975489 
	C134.796127,16.997169 125.952026,16.691368 117.145477,17.138117 
	C113.924164,17.301533 109.701935,14.336392 107.588707,21.192562 
	C106.157440,25.836216 99.784203,28.956642 95.477562,32.889576 
	C90.787720,27.906918 85.979851,22.724855 81.048958,17.662632 
	C80.491776,17.090612 79.241318,17.013172 78.311737,17.011326 
	C60.153614,16.975246 41.995201,16.951105 23.837616,17.056271 
	C22.568920,17.063618 20.166052,18.270878 20.220148,18.627291 
	C20.672682,21.608824 18.027912,21.577433 16.734959,22.893486 
	C15.460823,24.190382 14.115207,26.154909 14.100061,27.838200 
	C13.923216,47.494049 13.991911,67.152107 14.163754,87.666008 
M21.032795,169.008545 
	C26.509214,169.008820 32.002193,169.255249 37.453915,168.888443 
	C39.640800,168.741318 41.736977,167.245941 44.597691,166.065872 
	C45.546513,167.019379 47.278679,169.147736 49.394241,170.778809 
	C51.577202,172.461838 53.928604,173.511139 56.083351,170.198380 
	C58.465076,166.536652 65.495430,166.891449 68.036087,170.475677 
	C68.544701,171.193207 69.581963,171.854004 70.442429,171.951797 
	C75.493095,172.525787 80.550644,171.608932 85.634308,171.736237 
	C87.493912,171.782806 89.431450,168.717239 91.333603,167.071594 
	C97.529938,170.392426 116.541695,169.789322 119.643112,166.965240 
	C123.057732,167.750916 125.773613,168.785080 128.530609,168.909729 
	C132.225037,169.076736 136.088303,167.820419 139.627869,168.494415 
	C143.689667,169.267868 147.022934,169.424973 149.842651,165.660339 
	C152.127289,167.801544 154.002579,170.129700 156.409470,171.568649 
	C157.573059,172.264328 159.785568,171.471817 161.431549,171.019669 
	C163.086304,170.565094 164.572922,169.364136 166.231796,169.092682 
	C168.340714,168.747620 170.557281,169.132492 172.712570,168.985138 
	C178.901855,168.561951 182.718628,162.397003 180.472748,156.800522 
	C180.130783,155.948410 180.399246,154.608658 180.842651,153.723526 
	C183.679443,148.060623 181.308746,143.924835 174.998322,144.026031 
	C169.116730,144.120361 163.221130,144.932693 157.365265,144.672745 
	C148.200119,144.265884 138.852478,141.437149 130.429443,148.469925 
	C129.026382,143.868469 125.767265,143.836700 122.102654,143.925507 
	C113.637894,144.130646 105.157158,143.791000 96.699669,144.112793 
	C94.176529,144.208801 91.708961,145.765259 88.550858,146.889282 
	C85.046501,143.779755 78.046806,142.658371 72.472839,144.964798 
	C71.858337,145.219070 70.910866,145.053009 70.256821,144.765579 
	C65.682953,142.755539 56.841980,143.890015 54.386013,146.538086 
	C52.012428,145.638855 49.856930,144.171631 47.658081,144.103500 
	C38.838615,143.830246 30.005714,143.994110 21.177782,143.989304 
	C16.239140,143.986618 13.442832,147.783630 12.236806,151.250427 
	C9.320185,159.634460 12.208647,165.065781 21.032795,169.008545 
z"/>
<path fill="#FBF5F5" opacity="1.000000" stroke="none" 
	d="
M14.079724,87.237793 
	C13.991911,67.152107 13.923216,47.494049 14.100061,27.838200 
	C14.115207,26.154909 15.460823,24.190382 16.734959,22.893486 
	C18.027912,21.577433 20.672682,21.608824 20.220148,18.627291 
	C20.166052,18.270878 22.568920,17.063618 23.837616,17.056271 
	C41.995201,16.951105 60.153614,16.975246 78.311737,17.011326 
	C79.241318,17.013172 80.491776,17.090612 81.048958,17.662632 
	C85.979851,22.724855 90.787720,27.906918 95.477562,32.889576 
	C99.784203,28.956642 106.157440,25.836216 107.588707,21.192562 
	C109.701935,14.336392 113.924164,17.301533 117.145477,17.138117 
	C125.952026,16.691368 134.796127,16.997169 143.625305,16.975489 
	C145.881485,16.969948 148.119629,16.835268 148.045181,20.120361 
	C148.031784,20.710896 148.237808,21.694700 148.610779,21.849133 
	C158.978790,26.142246 164.267761,36.155571 172.388687,42.971722 
	C174.602997,44.830265 177.213287,47.233860 177.804733,49.809219 
	C179.291138,56.281509 175.096405,60.731228 168.157654,60.996414 
	C165.163437,61.110847 162.161179,61.015675 159.162582,61.015697 
	C156.332932,61.015717 153.503281,61.015701 149.837860,61.015701 
	C152.892334,64.298683 155.461761,67.236412 158.218063,69.986870 
	C164.334274,76.090149 170.650314,81.996277 176.673920,88.188019 
	C179.993561,91.600334 177.944153,100.483276 173.376083,104.978027 
	C165.766785,112.465179 158.354324,120.152359 150.746918,127.641472 
	C146.138962,132.177780 141.385300,136.572449 136.574829,140.894638 
	C132.841370,144.249146 127.827278,144.018127 123.499573,139.909775 
	C116.089134,132.874954 108.954506,125.549591 101.995422,118.635704 
	C94.554016,125.709778 86.984070,133.190704 79.079079,140.299026 
	C75.209122,143.778976 69.833000,142.255096 65.011467,137.376511 
	C56.618195,128.883896 48.030941,120.583138 39.626598,112.101295 
	C32.656513,105.066925 25.878471,97.842201 18.903208,90.813095 
	C17.594875,89.494659 15.757171,88.701538 14.079724,87.237793 
M61.658012,124.035545 
	C61.830730,124.281578 62.063145,124.440125 62.587212,125.025902 
	C62.884724,125.247200 63.182236,125.468506 63.657997,126.064911 
	C63.832119,126.301025 64.062553,126.450195 64.566681,126.957344 
	C64.774391,127.227364 65.040863,127.412971 65.543839,127.959686 
	C65.729012,128.235306 65.980003,128.422714 66.522743,128.981155 
	C66.805557,129.161484 67.088364,129.341827 67.612381,130.003815 
	C67.900803,130.209946 68.189224,130.416061 68.685196,131.065826 
	C68.881561,131.351135 69.148232,131.533920 69.691772,132.010696 
	C69.883766,132.257324 70.131447,132.418243 70.712624,133.081894 
	C72.456352,133.213394 74.955986,134.151031 75.818268,133.342484 
	C80.583252,128.874496 84.949112,123.980843 89.872215,118.948769 
	C89.923927,118.644020 89.975639,118.339272 90.000473,118.003853 
	C90.000473,118.003853 90.034798,118.024025 90.722130,118.031380 
	C91.626595,117.006195 92.531052,115.981003 93.867004,114.842590 
	C94.209274,114.378601 94.551544,113.914612 95.518356,113.201988 
	C95.683205,112.811981 95.848045,112.421967 96.046768,112.090935 
	C96.046768,112.090935 96.112793,112.074631 96.747238,112.243126 
	C96.959274,111.881126 97.171318,111.519127 97.925117,110.759262 
	C98.019089,110.211037 98.113060,109.662811 98.093742,109.069839 
	C98.093742,109.069839 98.079376,109.190796 98.578751,109.631073 
	C98.778687,109.532761 98.978622,109.434448 99.904625,109.369308 
	C101.434891,110.046227 103.099838,110.524178 104.463478,111.447243 
	C106.448647,112.791031 108.216850,114.455338 110.375717,116.454285 
	C111.070450,117.063492 111.765175,117.672691 112.550690,118.932892 
	C113.061775,119.280746 113.572861,119.628601 114.454987,120.519295 
	C117.804932,123.764870 121.154877,127.010445 124.648155,130.895615 
	C125.017654,131.095428 125.387154,131.295258 126.005539,131.936890 
	C126.511223,132.378021 127.016914,132.819138 127.713287,133.919281 
	C130.537354,136.780304 132.903290,135.057953 134.989014,132.994034 
	C146.313248,121.788132 157.600830,110.544502 168.797745,99.211823 
	C169.787994,98.209557 170.035660,96.473579 170.635483,94.304939 
	C169.975037,93.366539 169.438004,92.303642 168.635727,91.508324 
	C155.509338,78.495857 142.317245,65.549393 129.242798,52.485153 
	C127.804520,51.048000 126.997322,48.979267 126.833214,46.977703 
	C131.009964,47.294758 136.236786,46.165058 139.123108,48.259998 
	C143.721649,51.597717 148.109634,52.618549 153.389069,52.370197 
	C157.535034,52.175163 161.700195,52.388630 166.030945,52.949001 
	C167.429688,52.536854 168.828415,52.124706 170.227158,51.712559 
	C169.462570,50.431171 168.846649,49.018845 167.876999,47.918110 
	C167.306366,47.270340 166.174133,47.117317 164.878128,46.221771 
	C159.652267,41.067909 154.426392,35.914047 149.071899,30.054392 
	C146.728577,29.040388 144.415436,27.242903 142.036591,27.151335 
	C132.929398,26.800760 123.800804,26.953037 114.680840,27.014309 
	C111.142448,27.038078 108.215187,28.214190 106.741501,32.488495 
	C106.075737,33.254963 105.409966,34.021431 104.083115,34.888416 
	C102.474754,36.956627 100.866402,39.024837 98.853157,41.492592 
	C98.485466,41.925491 98.117775,42.358391 97.019501,42.744820 
	C96.041618,42.681824 95.063728,42.618832 93.927788,42.282562 
	C93.795570,42.054462 93.618095,42.010387 93.427010,41.867031 
	C93.427010,41.867031 93.222321,41.668636 93.090302,41.026497 
	C90.807892,38.949646 88.525475,36.872791 85.865349,34.268555 
	C84.324203,32.753006 82.783058,31.237455 81.133453,29.051647 
	C79.238960,28.315273 77.352646,26.964241 75.448692,26.938894 
	C58.881695,26.718348 42.310211,26.629021 25.744215,26.834940 
	C23.948349,26.857262 22.178793,28.996140 20.234320,31.058334 
	C20.289284,47.331924 20.344248,63.605515 20.113960,80.569016 
	C20.905251,82.165001 21.346804,84.112198 22.542103,85.302475 
	C34.113655,96.825500 45.811718,108.221474 57.679886,120.097221 
	C57.874786,120.382996 58.139755,120.569031 58.681004,121.098053 
	C58.875885,121.383263 59.140663,121.568748 59.681950,122.096420 
	C59.877281,122.380783 60.142159,122.565453 60.684277,123.093719 
	C60.880692,123.379044 61.147072,123.563255 61.658012,124.035545 
z"/>
<path fill="#FCF9F9" opacity="1.000000" stroke="none" 
	d="
M20.599186,169.003387 
	C12.208647,165.065781 9.320185,159.634460 12.236806,151.250427 
	C13.442832,147.783630 16.239140,143.986618 21.177782,143.989304 
	C30.005714,143.994110 38.838615,143.830246 47.658081,144.103500 
	C49.856930,144.171631 52.012428,145.638855 54.386013,146.538086 
	C56.841980,143.890015 65.682953,142.755539 70.256821,144.765579 
	C70.910866,145.053009 71.858337,145.219070 72.472839,144.964798 
	C78.046806,142.658371 85.046501,143.779755 88.550858,146.889282 
	C91.708961,145.765259 94.176529,144.208801 96.699669,144.112793 
	C105.157158,143.791000 113.637894,144.130646 122.102654,143.925507 
	C125.767265,143.836700 129.026382,143.868469 130.429443,148.469925 
	C138.852478,141.437149 148.200119,144.265884 157.365265,144.672745 
	C163.221130,144.932693 169.116730,144.120361 174.998322,144.026031 
	C181.308746,143.924835 183.679443,148.060623 180.842651,153.723526 
	C180.399246,154.608658 180.130783,155.948410 180.472748,156.800522 
	C182.718628,162.397003 178.901855,168.561951 172.712570,168.985138 
	C170.557281,169.132492 168.340714,168.747620 166.231796,169.092682 
	C164.572922,169.364136 163.086304,170.565094 161.431549,171.019669 
	C159.785568,171.471817 157.573059,172.264328 156.409470,171.568649 
	C154.002579,170.129700 152.127289,167.801544 149.842651,165.660339 
	C147.022934,169.424973 143.689667,169.267868 139.627869,168.494415 
	C136.088303,167.820419 132.225037,169.076736 128.530609,168.909729 
	C125.773613,168.785080 123.057732,167.750916 119.643112,166.965240 
	C116.541695,169.789322 97.529938,170.392426 91.333519,167.071503 
	C89.431450,168.717239 87.493912,171.782806 85.634308,171.736237 
	C80.550644,171.608932 75.493095,172.525787 70.442429,171.951797 
	C69.581963,171.854004 68.544701,171.193207 68.036087,170.475677 
	C65.495430,166.891449 58.465076,166.536652 56.083351,170.198380 
	C53.928604,173.511139 51.577202,172.461838 49.394241,170.778809 
	C47.278679,169.147736 45.546513,167.019379 44.597691,166.065872 
	C41.736977,167.245941 39.640800,168.741318 37.453915,168.888443 
	C32.002193,169.255249 26.509214,169.008820 20.599186,169.003387 
M176.469376,160.626953 
	C176.255447,160.144547 176.041519,159.662155 175.827576,159.179764 
	C175.210464,159.741364 174.593353,160.302948 173.124283,161.017776 
	C170.615738,161.017776 168.107193,161.017776 165.598648,161.017776 
	C165.453598,160.552261 165.308548,160.086746 165.163483,159.621231 
	C166.206207,158.405960 167.248917,157.190674 168.485321,156.070145 
	C168.485321,156.070145 168.700943,156.071198 169.523956,156.041733 
	C171.348022,155.695053 173.172104,155.348373 175.013168,154.319244 
	C174.998322,153.864471 174.983459,153.409698 175.088593,152.474823 
	C175.088593,152.474823 175.170914,151.986862 175.840820,151.983200 
	C176.028809,150.811432 176.216797,149.639664 176.404785,148.467896 
	C171.595184,149.019424 166.785599,149.570953 161.320679,150.620178 
	C161.240555,154.731552 161.160416,158.842926 160.290985,162.963364 
	C159.500900,162.971207 158.710800,162.979050 158.040787,162.220612 
	C157.316925,160.137970 156.593048,158.055344 156.596436,155.804047 
	C158.354156,152.745819 157.330429,150.166718 153.830460,149.778290 
	C151.245941,149.491455 148.577255,149.962799 145.172836,150.038818 
	C143.886292,150.093185 142.599747,150.147552 140.635086,149.876221 
	C139.077362,150.186035 137.519653,150.495834 135.277359,151.231537 
	C134.736801,154.414261 134.196243,157.597000 133.831085,160.867722 
	C133.831085,160.867722 133.865723,160.674576 133.003006,160.687866 
	C131.001205,160.795944 128.999405,160.904037 126.560272,160.755615 
	C126.391998,160.771240 126.223724,160.786865 126.099380,160.873550 
	C126.099380,160.873550 126.169434,160.828018 126.066376,159.933182 
	C126.047638,157.774399 125.906654,155.608063 126.039078,153.458603 
	C126.233047,150.310242 125.015198,149.073120 121.421982,150.101395 
	C120.381409,149.814438 119.340828,149.527481 117.330940,149.324005 
	C113.896759,149.464752 110.418793,149.321472 107.043114,149.841766 
	C104.617928,150.215561 102.329338,151.475571 99.692497,152.445969 
	C101.523270,155.101700 102.602646,156.667450 103.851295,158.612656 
	C103.851295,158.612656 103.996605,159.001938 103.976921,159.451218 
	C103.976921,159.451218 103.959518,159.900574 103.879425,160.297943 
	C103.879425,160.297943 103.862656,160.702942 103.398140,160.877274 
	C103.398140,160.877274 102.921722,161.015793 102.167572,161.135330 
	C100.073814,163.233017 100.310532,164.772552 103.417625,164.945221 
	C107.058022,165.147537 110.831383,165.479156 114.327316,164.729675 
	C116.163399,164.336029 117.530235,161.753616 119.058258,159.439468 
	C118.045219,158.139633 117.032188,156.839813 116.030273,155.036575 
	C116.024689,154.701019 116.019112,154.365463 115.918106,153.239655 
	C115.787582,153.008667 115.657059,152.777664 115.996559,152.381042 
	C115.996559,152.381042 116.475471,152.518814 117.078644,152.730026 
	C117.374603,152.462936 117.670570,152.195847 117.980118,151.945343 
	C117.980118,151.945343 117.993378,151.962173 118.579506,152.043396 
	C119.482887,152.397369 120.386269,152.751343 121.531525,153.907043 
	C121.665779,155.860840 121.800026,157.814651 121.889427,160.576660 
	C124.512718,163.915024 132.125259,165.730774 135.469452,163.428848 
	C136.696426,162.584244 137.112991,160.562317 138.037888,158.184113 
	C138.000076,155.794739 137.962250,153.405380 138.695297,150.989655 
	C139.466248,150.992203 140.237198,150.994766 141.139465,151.906036 
	C141.195801,155.262253 141.252121,158.618454 140.993530,162.514114 
	C140.981750,162.722229 140.969955,162.930359 141.092529,163.868271 
	C143.528488,165.687515 145.384384,165.937912 146.207809,162.271133 
	C146.437164,161.249756 147.348221,160.381454 148.763596,159.276230 
	C149.866013,159.337479 150.968430,159.398712 152.284546,159.824799 
	C152.684494,159.913406 153.084457,160.002014 153.854385,160.751694 
	C153.903214,161.507416 153.952026,162.263123 154.084198,163.500534 
	C154.237808,163.829514 154.495895,164.003586 154.956818,164.000320 
	C154.956818,164.000320 154.972214,164.100006 155.035690,164.825531 
	C158.330139,169.494324 159.784714,166.297379 161.629654,163.373795 
	C161.629654,163.373795 161.946411,163.465805 162.713593,164.031845 
	C166.144226,164.165558 169.574860,164.299286 173.253342,164.658340 
	C173.512955,164.515015 173.772568,164.371689 174.492737,163.864334 
	C174.766357,163.368317 175.039978,162.872284 175.428162,162.346619 
	C175.428162,162.346619 175.529236,162.285049 175.941040,161.999863 
	C175.969086,161.668884 175.997131,161.337906 176.469376,160.626953 
M89.204033,159.587006 
	C89.359070,159.815155 89.574097,159.917999 90.498901,160.186340 
	C92.687904,161.583145 94.876907,162.979965 98.321854,165.178192 
	C98.321854,160.915833 98.587090,158.301132 98.238930,155.770844 
	C97.954315,153.702301 100.058159,150.306534 96.047066,150.082581 
	C95.490677,150.051514 94.714714,153.952789 93.277771,155.999023 
	C92.515717,156.007965 91.753670,156.016922 90.457626,155.780258 
	C89.968285,155.185760 89.478943,154.591263 88.951302,153.276611 
	C85.617851,148.412903 80.450470,147.455139 76.332230,150.980621 
	C75.896042,151.016205 75.459846,151.051788 74.973419,150.492905 
	C74.375961,150.587082 73.637665,150.494492 73.211548,150.815857 
	C72.421013,151.412018 71.812813,152.249939 70.858818,152.393829 
	C69.965439,151.896515 69.072060,151.399200 67.916527,150.277100 
	C65.499107,150.064560 63.082737,149.692230 60.664017,149.676331 
	C56.892513,149.651505 54.832603,151.578201 54.822628,155.469589 
	C54.818810,156.958237 54.780849,158.446762 54.103294,159.956161 
	C53.672913,160.034348 53.242531,160.112534 52.418285,159.650497 
	C52.106155,158.477951 51.794025,157.305389 51.821918,155.975479 
	C52.031654,155.805969 52.134064,155.586426 52.311852,154.675217 
	C50.916992,153.112717 49.676228,150.417572 48.098003,150.202850 
	C43.597305,149.590546 38.959267,149.987717 33.139301,149.987717 
	C34.192032,155.302124 35.045483,159.610535 36.379406,164.513672 
	C38.171188,163.454193 39.962971,162.394730 41.754757,161.335251 
	C41.557800,160.965820 41.360844,160.596390 41.163887,160.226959 
	C43.306271,160.226959 45.448650,160.226959 47.910492,160.862686 
	C48.213459,161.998367 48.516430,163.134033 49.017395,164.931702 
	C52.815933,169.662369 58.053307,164.785370 58.760399,163.796371 
	C61.175480,160.418472 63.882256,161.076141 66.953957,161.523651 
	C66.953957,161.523651 66.998199,161.972839 66.886177,162.698547 
	C67.588425,163.502762 68.290665,164.306961 69.109337,165.772278 
	C70.603317,165.772278 72.097298,165.772278 73.591278,165.772278 
	C77.760223,167.561142 77.760223,167.561142 81.961723,163.988617 
	C81.961723,163.988617 82.002167,164.102615 82.074051,164.842285 
	C83.237793,165.519791 84.401535,166.197311 85.565269,166.874832 
	C86.042564,165.758484 86.537445,164.649261 86.992828,163.524048 
	C87.606270,162.008270 88.189278,160.480179 89.014236,159.011093 
	C89.014236,159.011093 89.110443,159.225616 89.204033,159.587006 
M28.117706,149.963440 
	C26.787476,149.952820 25.457262,149.937836 24.127008,149.932312 
	C16.962927,149.902588 15.564608,151.618484 16.627249,159.741119 
	C16.754429,160.184387 16.881609,160.627655 17.051636,161.713989 
	C17.701040,162.130554 18.350447,162.547134 19.487284,163.133347 
	C19.673935,163.412628 19.860584,163.691925 20.562557,164.600128 
	C22.367933,164.738724 24.171608,164.907303 25.979025,165.009949 
	C30.198042,165.249573 32.397873,162.945389 33.078758,159.054062 
	C33.968575,153.968689 29.940054,155.001236 26.737043,154.822281 
	C28.106867,153.952515 29.000383,153.385178 30.250359,152.408386 
	C30.702253,151.529816 31.154146,150.651260 31.606041,149.772705 
	C30.747618,149.853897 29.889193,149.935104 28.117706,149.963440 
z"/>
<path fill="#FB0505" opacity="1.000000" stroke="none" 
	d="
M94.893806,113.450623 
	C94.551544,113.914612 94.209274,114.378601 93.248955,114.794449 
	C91.765533,115.838875 90.900162,116.931450 90.034790,118.024025 
	C90.034798,118.024025 90.000473,118.003853 89.675056,117.872780 
	C88.560074,118.157768 87.770515,118.573822 86.986420,118.989517 
	C86.991882,118.989151 86.972130,118.980133 86.718819,119.038956 
	C86.303726,119.389214 86.141945,119.680634 85.989365,119.985420 
	C85.998566,119.998779 85.971970,119.980118 85.718613,120.038559 
	C85.303520,120.388283 85.141792,120.679558 84.989120,120.984657 
	C84.998169,120.998474 84.970734,120.979958 84.717216,121.037643 
	C84.302475,121.386658 84.141251,121.677986 83.988770,121.983597 
	C83.997498,121.997864 83.969185,121.979927 83.715515,122.036957 
	C83.301529,122.385674 83.141220,122.677368 82.988968,122.983154 
	C82.997025,122.997253 82.968941,122.980865 82.715149,123.037369 
	C82.301231,123.385643 82.141098,123.677414 81.989059,123.983215 
	C81.997169,123.997253 81.969124,123.980995 81.715416,124.037727 
	C81.301170,124.386108 81.140625,124.677757 80.988815,124.983490 
	C80.997559,124.997574 80.969284,124.980186 80.715797,125.038254 
	C80.302010,125.388321 80.141708,125.680328 79.989792,125.985405 
	C79.998169,125.998474 79.972122,125.981445 79.718353,126.039452 
	C79.303459,126.389450 79.142342,126.681442 78.989998,126.986107 
	C78.998779,126.998779 78.973419,126.981339 78.719940,127.040207 
	C78.304550,127.390663 78.142632,127.682251 77.989899,127.986465 
	C77.999084,127.999084 77.973785,127.980713 77.720245,128.039703 
	C77.304390,128.390198 77.142067,128.681717 76.987885,128.985687 
	C76.996010,128.998169 76.973846,128.971359 76.611954,128.943665 
	C73.386520,130.245590 71.449455,129.115295 69.356705,126.967575 
	C60.767830,118.153137 52.040241,109.471008 43.220970,100.886833 
	C41.799568,99.503319 39.653961,98.863853 37.630878,97.705399 
	C36.647724,96.745468 35.876820,95.960594 35.109322,94.789780 
	C34.582664,93.938530 34.052601,93.473221 33.371086,92.840393 
	C32.932941,92.144943 32.646244,91.617004 32.176525,90.848961 
	C31.654257,90.413094 31.315014,90.217339 30.989361,90.021599 
	C31.002953,90.021606 30.977093,90.040001 30.924332,89.795647 
	C30.705984,89.251648 30.474785,89.016510 29.956158,88.591225 
	C29.090044,88.190300 28.445751,88.044052 27.597015,87.714661 
	C26.619108,86.751045 25.845642,85.970566 25.042778,84.891861 
	C24.696850,84.388199 24.380318,84.182755 24.042221,83.977219 
	C24.020657,83.977135 24.045027,83.941528 24.077477,83.628616 
	C23.718033,82.883949 23.326141,82.452202 22.965481,82.011993 
	C22.996714,82.003540 22.961765,82.058006 22.971272,81.809418 
	C22.629499,81.454659 22.278223,81.348495 21.718056,81.090042 
	C21.139179,80.584877 20.769196,80.231995 20.399210,79.879105 
	C20.344248,63.605515 20.289284,47.331924 20.678127,30.510296 
	C24.007336,29.893805 26.892639,29.770864 29.778151,29.765854 
	C46.932713,29.736071 64.087318,29.733570 81.241913,29.721905 
	C82.783058,31.237455 84.324203,32.753006 85.991669,34.879387 
	C88.486107,37.549686 90.854210,39.609161 93.222321,41.668636 
	C93.222321,41.668636 93.427010,41.867031 93.079926,42.254547 
	C90.838417,42.774979 88.943985,42.907898 86.892471,42.813831 
	C86.141403,42.741184 85.547417,42.895527 84.496796,43.031818 
	C80.376328,43.023117 76.712479,43.032467 72.793121,42.769363 
	C70.675835,42.678944 68.814049,42.860981 66.487045,43.025269 
	C59.363262,43.022282 52.704700,43.037045 45.876366,42.822716 
	C45.034447,42.987774 44.362305,43.381920 43.285248,43.794849 
	C41.963398,44.308655 41.046452,44.803680 39.855209,45.354645 
	C39.155231,46.051968 38.367340,46.688557 38.358780,47.335461 
	C38.248753,55.649090 38.137756,63.966942 38.341633,72.276009 
	C38.372932,73.551727 39.984898,74.788658 41.104462,76.280159 
	C46.220509,81.371101 51.097919,86.225403 55.967888,91.421524 
	C60.853596,97.095139 65.580132,102.600273 70.787323,107.605347 
	C71.771255,108.551094 75.313728,108.278984 76.554604,107.235596 
	C79.926949,104.399994 82.851959,100.973236 85.631004,97.520584 
	C86.725677,96.160561 86.962624,94.110138 87.657021,92.010361 
	C86.875885,90.080811 86.308502,88.251068 85.128998,86.997055 
	C81.054222,82.664894 76.975655,78.289986 72.478912,74.418777 
	C69.872528,72.174957 66.462761,70.864319 63.209686,68.815132 
	C63.985031,67.911140 64.970802,66.814781 65.944481,66.825409 
	C71.248566,66.883339 76.557281,67.502449 81.849480,67.362793 
	C86.386505,67.243065 89.784035,68.759331 92.904533,71.972862 
	C104.502731,83.916840 116.271156,95.695343 127.929192,107.581566 
	C129.840576,109.530357 131.484406,109.805557 133.313904,107.572502 
	C134.577301,106.030441 136.025589,104.637222 137.255142,103.070648 
	C139.556931,100.137939 141.759903,97.127663 144.254608,93.914864 
	C143.750183,92.028900 143.379807,89.997467 142.181122,88.784836 
	C128.862335,75.311172 115.438293,61.941040 101.964355,48.622181 
	C100.737106,47.409061 98.967552,46.744545 97.374146,45.568947 
	C97.449005,44.472176 97.599541,43.631729 97.750076,42.791286 
	C98.117775,42.358391 98.485466,41.925491 99.386909,41.272289 
	C101.528503,38.963955 103.136353,36.875927 104.744202,34.787899 
	C105.409966,34.021431 106.075737,33.254963 107.349838,32.246376 
	C109.394241,31.260954 110.838264,29.860216 112.265091,29.877512 
	C124.578659,30.026781 136.889130,30.431572 149.200531,30.760185 
	C154.426392,35.914047 159.652267,41.067909 165.078400,46.813175 
	C165.681213,47.947445 166.083755,48.490311 165.987335,49.039291 
	C163.675095,49.023232 161.861893,48.993439 160.048553,48.980236 
	C152.567993,48.925755 145.217941,49.819939 138.616379,43.994499 
	C136.346024,41.991047 130.805267,43.598438 126.776367,43.846165 
	C126.415947,43.868324 126.187286,46.033535 125.897438,47.203461 
	C126.997322,48.979267 127.804520,51.048000 129.242798,52.485153 
	C142.317245,65.549393 155.509338,78.495857 168.635727,91.508324 
	C169.438004,92.303642 169.975037,93.366539 170.249512,94.702080 
	C169.626785,95.193474 169.389999,95.287727 168.812897,95.319473 
	C167.045563,96.325394 165.469528,97.243370 164.215195,98.486061 
	C154.170654,108.437500 144.119736,118.384567 134.228745,128.487625 
	C131.536942,131.237152 129.617294,131.432938 126.876434,128.536804 
	C121.161652,122.498253 115.221184,116.666794 109.218483,110.911865 
	C107.739250,109.493690 105.665390,108.695732 103.795105,107.517319 
	C103.725327,107.421982 103.431488,107.033157 103.165359,106.756958 
	C101.907883,106.747520 100.916542,107.014290 99.781982,107.377640 
	C99.442566,107.595169 99.250130,107.721840 98.759003,107.953323 
	C98.330826,108.431870 98.205101,108.811333 98.079376,109.190796 
	C98.079376,109.190796 98.093742,109.069839 97.767273,109.008347 
	C96.888412,109.674545 96.336029,110.402252 95.789581,111.392731 
	C95.901276,111.795212 96.007034,111.934921 96.112793,112.074631 
	C96.112793,112.074631 96.046768,112.090935 95.722885,111.939041 
	C95.230606,112.341637 95.062202,112.896126 94.893806,113.450623 
z"/>
<path fill="#960808" opacity="1.000000" stroke="none" 
	d="
M103.864891,107.612656 
	C105.665390,108.695732 107.739250,109.493690 109.218483,110.911865 
	C115.221184,116.666794 121.161652,122.498253 126.876434,128.536804 
	C129.617294,131.432938 131.536942,131.237152 134.228745,128.487625 
	C144.119736,118.384567 154.170654,108.437500 164.215195,98.486061 
	C165.469528,97.243370 167.045563,96.325394 168.740906,95.625168 
	C167.841934,97.387177 166.769836,98.875687 165.492188,100.159683 
	C155.743103,109.957069 145.870255,119.633202 136.233932,129.539673 
	C133.713608,132.130661 131.106018,133.602829 127.522606,133.260254 
	C127.016914,132.819138 126.511223,132.378021 125.849327,131.368103 
	C125.297020,130.618225 124.900925,130.437119 124.504829,130.256012 
	C121.154877,127.010445 117.804932,123.764870 114.268211,119.897133 
	C113.540924,118.943947 113.000420,118.612923 112.459908,118.281898 
	C111.765175,117.672691 111.070450,117.063492 110.234680,115.867844 
	C108.017395,112.725151 105.941147,110.168900 103.864891,107.612656 
z"/>
<path fill="#E06262" opacity="1.000000" stroke="none" 
	d="
M81.187683,29.386776 
	C64.087318,29.733570 46.932713,29.736071 29.778151,29.765854 
	C26.892639,29.770864 24.007336,29.893805 20.759483,30.057755 
	C22.178793,28.996140 23.948349,26.857262 25.744215,26.834940 
	C42.310211,26.629021 58.881695,26.718348 75.448692,26.938894 
	C77.352646,26.964241 79.238960,28.315273 81.187683,29.386776 
z"/>
<path fill="#9A1A1A" opacity="1.000000" stroke="none" 
	d="
M126.365326,47.090584 
	C126.187286,46.033535 126.415947,43.868324 126.776367,43.846165 
	C130.805267,43.598438 136.346024,41.991047 138.616379,43.994499 
	C145.217941,49.819939 152.567993,48.925755 160.048553,48.980236 
	C161.861893,48.993439 163.675095,49.023232 166.239624,49.195614 
	C166.612869,50.370762 166.234848,51.395695 165.856827,52.420628 
	C161.700195,52.388630 157.535034,52.175163 153.389069,52.370197 
	C148.109634,52.618549 143.721649,51.597717 139.123108,48.259998 
	C136.236786,46.165058 131.009964,47.294758 126.365326,47.090584 
z"/>
<path fill="#951918" opacity="1.000000" stroke="none" 
	d="
M87.049553,43.040825 
	C88.943985,42.907898 90.838417,42.774979 93.064102,42.396198 
	C93.618095,42.010387 93.795570,42.054462 93.965759,42.812634 
	C93.686806,44.311749 93.369881,45.280792 92.579597,46.287514 
	C76.011383,46.261494 59.916538,46.197800 43.717533,45.887863 
	C42.452087,45.527313 41.290798,45.413010 40.129509,45.298706 
	C41.046452,44.803680 41.963398,44.308655 43.619709,43.854820 
	C44.921429,43.614609 45.483780,43.333206 46.046135,43.051811 
	C52.704700,43.037045 59.363262,43.022282 66.746758,43.290394 
	C69.330673,43.396118 71.189651,43.218967 73.048637,43.041817 
	C76.712479,43.032467 80.376328,43.023117 84.656456,43.251057 
	C85.865013,43.339172 86.457283,43.189999 87.049553,43.040825 
z"/>
<path fill="#965959" opacity="1.000000" stroke="none" 
	d="
M127.617950,133.589767 
	C131.106018,133.602829 133.713608,132.130661 136.233932,129.539673 
	C145.870255,119.633202 155.743103,109.957069 165.492188,100.159683 
	C166.769836,98.875687 167.841934,97.387177 169.081238,95.687683 
	C169.389999,95.287727 169.626785,95.193474 170.245880,95.088791 
	C170.035660,96.473579 169.787994,98.209557 168.797745,99.211823 
	C157.600830,110.544502 146.313248,121.788132 134.989014,132.994034 
	C132.903290,135.057953 130.537354,136.780304 127.617950,133.589767 
z"/>
<path fill="#E06262" opacity="1.000000" stroke="none" 
	d="
M149.136215,30.407290 
	C136.889130,30.431572 124.578659,30.026781 112.265091,29.877512 
	C110.838264,29.860216 109.394241,31.260954 107.578720,32.043602 
	C108.215187,28.214190 111.142448,27.038078 114.680840,27.014309 
	C123.800804,26.953037 132.929398,26.800760 142.036591,27.151335 
	C144.415436,27.242903 146.728577,29.040388 149.136215,30.407290 
z"/>
<path fill="#965959" opacity="1.000000" stroke="none" 
	d="
M25.072178,85.190079 
	C25.845642,85.970566 26.619108,86.751045 27.704868,87.957550 
	C28.273003,88.617317 28.528841,88.851059 28.933577,89.321785 
	C29.400690,89.737633 29.718906,89.916504 30.276285,90.152328 
	C30.515448,90.209290 30.977093,90.040001 30.977093,90.040001 
	C30.977093,90.040001 31.002953,90.021606 31.071831,90.345711 
	C31.546988,90.809570 31.953266,90.949326 32.359547,91.089081 
	C32.646244,91.617004 32.932941,92.144943 33.480148,93.170372 
	C34.195747,94.170486 34.650833,94.673103 35.105919,95.175720 
	C35.876820,95.960594 36.647724,96.745468 37.784351,98.023804 
	C44.777771,105.333595 51.405476,112.149918 57.886414,119.132515 
	C57.739655,119.298782 57.473656,119.653725 57.473656,119.653725 
	C45.811718,108.221474 34.113655,96.825500 22.542103,85.302475 
	C21.346804,84.112198 20.905251,82.165001 20.256584,80.224060 
	C20.769196,80.231995 21.139179,80.584877 21.822596,81.301834 
	C22.334782,81.957504 22.610027,82.088203 22.961765,82.058006 
	C22.961765,82.058006 22.996714,82.003540 22.964806,82.316002 
	C23.303606,83.066154 23.674316,83.503838 24.045027,83.941528 
	C24.045027,83.941528 24.020657,83.977135 24.119675,84.241776 
	C24.503187,84.734306 24.787683,84.962189 25.072178,85.190079 
z"/>
<path fill="#965959" opacity="1.000000" stroke="none" 
	d="
M89.451767,119.233086 
	C84.949112,123.980843 80.583252,128.874496 75.818268,133.342484 
	C74.955986,134.151031 72.456352,133.213394 70.730675,132.653915 
	C70.748726,132.225937 71.047646,131.941772 71.418335,131.989151 
	C73.517296,131.014801 75.245575,129.993088 76.973846,128.971359 
	C76.973846,128.971359 76.996010,128.998169 77.234001,128.916046 
	C77.639252,128.549500 77.806519,128.265106 77.973785,127.980713 
	C77.973785,127.980713 77.999084,127.999084 78.236168,127.917221 
	C78.639977,127.550682 78.806702,127.266014 78.973427,126.981339 
	C78.973419,126.981339 78.998779,126.998779 79.236557,126.917694 
	C79.640266,126.551552 79.806190,126.266495 79.972122,125.981445 
	C79.972122,125.981445 79.998169,125.998474 80.235092,125.915955 
	C80.637764,125.549011 80.803520,125.264595 80.969284,124.980186 
	C80.969284,124.980186 80.997559,124.997574 81.233551,124.913506 
	C81.636070,124.546623 81.802597,124.263809 81.969124,123.980995 
	C81.969124,123.980995 81.997169,123.997253 82.234070,123.914093 
	C82.636963,123.547569 82.802956,123.264221 82.968941,122.980865 
	C82.968941,122.980865 82.997025,122.997253 83.233856,122.913849 
	C83.636856,122.546936 83.803017,122.263428 83.969177,121.979927 
	C83.969185,121.979927 83.997498,121.997864 84.233643,121.913651 
	C84.636772,121.546272 84.803757,121.263115 84.970734,120.979965 
	C84.970734,120.979958 84.998169,120.998474 85.234283,120.914536 
	C85.637589,120.547112 85.804779,120.263611 85.971970,119.980118 
	C85.971970,119.980118 85.998566,119.998779 86.234634,119.915108 
	C86.637848,119.547668 86.804985,119.263901 86.972130,118.980133 
	C86.972130,118.980133 86.991882,118.989151 87.399002,119.018661 
	C88.354675,119.109818 88.903221,119.171448 89.451767,119.233086 
z"/>
<path fill="#965959" opacity="1.000000" stroke="none" 
	d="
M103.795105,107.517319 
	C105.941147,110.168900 108.017395,112.725151 110.085602,115.632187 
	C108.216850,114.455338 106.448647,112.791031 104.463478,111.447243 
	C103.099838,110.524178 101.434891,110.046227 99.470566,108.984840 
	C99.044823,108.351662 99.053139,108.102943 99.061455,107.854233 
	C99.250130,107.721840 99.442566,107.595169 100.215363,107.332047 
	C101.671799,107.137634 102.551643,107.085396 103.431488,107.033157 
	C103.431488,107.033157 103.725327,107.421982 103.795105,107.517319 
z"/>
<path fill="#E06262" opacity="1.000000" stroke="none" 
	d="
M165.943878,52.684814 
	C166.234848,51.395695 166.612869,50.370762 166.738586,49.189507 
	C166.083755,48.490311 165.681213,47.947445 165.286560,47.073181 
	C166.174133,47.117317 167.306366,47.270340 167.876999,47.918110 
	C168.846649,49.018845 169.462570,50.431171 170.227158,51.712559 
	C168.828415,52.124706 167.429688,52.536854 165.943878,52.684814 
z"/>
<path fill="#E06262" opacity="1.000000" stroke="none" 
	d="
M93.156311,41.347565 
	C90.854210,39.609161 88.486107,37.549686 86.180527,35.143078 
	C88.525475,36.872791 90.807892,38.949646 93.156311,41.347565 
z"/>
<path fill="#E06262" opacity="1.000000" stroke="none" 
	d="
M93.052963,46.249836 
	C93.369881,45.280792 93.686806,44.311749 94.044785,42.949272 
	C95.063728,42.618832 96.041618,42.681824 97.384789,42.768051 
	C97.599541,43.631729 97.449005,44.472176 97.191254,45.764931 
	C96.876709,46.512852 96.669373,46.808468 96.156548,47.161209 
	C94.918365,46.895504 93.985664,46.572670 93.052963,46.249836 
z"/>
<path fill="#E06262" opacity="1.000000" stroke="none" 
	d="
M104.413658,34.838158 
	C103.136353,36.875927 101.528503,38.963955 99.589355,41.072517 
	C100.866402,39.024837 102.474754,36.956627 104.413658,34.838158 
z"/>
<path fill="#960808" opacity="1.000000" stroke="none" 
	d="
M90.378464,118.027702 
	C90.900162,116.931450 91.765533,115.838875 93.033211,114.851059 
	C92.531052,115.981003 91.626595,117.006195 90.378464,118.027702 
z"/>
<path fill="#960808" opacity="1.000000" stroke="none" 
	d="
M95.783646,111.129959 
	C96.336029,110.402252 96.888412,109.674545 97.823914,109.030716 
	C98.113060,109.662811 98.019089,110.211037 97.254425,110.913223 
	C96.317032,111.088120 96.050339,111.109039 95.783646,111.129959 
z"/>
<path fill="#960808" opacity="1.000000" stroke="none" 
	d="
M89.661987,119.090927 
	C88.903221,119.171448 88.354675,119.109818 87.393539,119.019028 
	C87.770515,118.573822 88.560074,118.157768 89.688492,117.888115 
	C89.975639,118.339272 89.923927,118.644020 89.661987,119.090927 
z"/>
<path fill="#960808" opacity="1.000000" stroke="none" 
	d="
M95.206085,113.326309 
	C95.062202,112.896126 95.230606,112.341637 95.705948,111.909546 
	C95.848045,112.421967 95.683205,112.811981 95.206085,113.326309 
z"/>
<path fill="#965959" opacity="1.000000" stroke="none" 
	d="
M112.505295,118.607391 
	C113.000420,118.612923 113.540924,118.943947 114.082695,119.625717 
	C113.572861,119.628601 113.061775,119.280746 112.505295,118.607391 
z"/>
<path fill="#965959" opacity="1.000000" stroke="none" 
	d="
M63.479748,125.689804 
	C63.182236,125.468506 62.884724,125.247200 62.647583,124.638817 
	C62.707958,124.251732 63.037487,123.963402 63.244041,124.087425 
	C63.709599,124.414925 63.901657,124.669006 63.880608,125.145546 
	C63.734451,125.317390 63.479748,125.689804 63.479748,125.689804 
z"/>
<path fill="#965959" opacity="1.000000" stroke="none" 
	d="
M68.477646,130.622177 
	C68.189224,130.416061 67.900803,130.209946 67.660873,129.630768 
	C67.709358,129.257736 68.029037,128.971222 68.238754,129.090515 
	C68.709770,129.410980 68.904800,129.663361 68.889282,130.126251 
	C68.745003,130.285568 68.477646,130.622177 68.477646,130.622177 
z"/>
<path fill="#965959" opacity="1.000000" stroke="none" 
	d="
M67.540268,129.389954 
	C67.088364,129.341827 66.805557,129.161484 66.597626,128.626038 
	C66.672508,128.270905 67.019196,127.981117 67.228851,128.100067 
	C67.699425,128.419449 67.896271,128.670181 68.029037,128.971222 
	C68.029037,128.971222 67.709358,129.257736 67.540268,129.389954 
z"/>
<path fill="#965959" opacity="1.000000" stroke="none" 
	d="
M66.484665,128.396423 
	C65.980003,128.422714 65.729012,128.235306 65.629524,127.604584 
	C65.715210,127.249481 66.042953,126.958755 66.245895,127.087646 
	C66.704597,127.422432 66.894714,127.677292 67.019196,127.981117 
	C67.019196,127.981117 66.672508,128.270905 66.484665,128.396423 
z"/>
<path fill="#965959" opacity="1.000000" stroke="none" 
	d="
M124.576492,130.575806 
	C124.900925,130.437119 125.297020,130.618225 125.724884,131.147202 
	C125.387154,131.295258 125.017654,131.095428 124.576492,130.575806 
z"/>
<path fill="#965959" opacity="1.000000" stroke="none" 
	d="
M65.540657,127.381821 
	C65.040863,127.412971 64.774391,127.227364 64.637672,126.603302 
	C64.708664,126.249252 65.043892,125.955956 65.255989,126.073151 
	C65.732903,126.391731 65.924530,126.647865 66.042953,126.958755 
	C66.042953,126.958755 65.715210,127.249481 65.540657,127.381821 
z"/>
<path fill="#965959" opacity="1.000000" stroke="none" 
	d="
M64.528976,126.380829 
	C64.062553,126.450195 63.832119,126.301025 63.568871,125.877357 
	C63.479748,125.689804 63.734451,125.317390 64.089371,125.264954 
	C64.703659,125.412323 64.903526,125.660141 65.043892,125.955956 
	C65.043892,125.955956 64.708664,126.249252 64.528976,126.380829 
z"/>
<path fill="#965959" opacity="1.000000" stroke="none" 
	d="
M95.789581,111.392731 
	C96.050339,111.109039 96.317032,111.088120 96.983543,111.112167 
	C97.171318,111.519127 96.959274,111.881126 96.430016,112.158875 
	C96.007034,111.934921 95.901276,111.795212 95.789581,111.392731 
z"/>
<path fill="#960808" opacity="1.000000" stroke="none" 
	d="
M98.759003,107.953323 
	C99.053139,108.102943 99.044823,108.351662 99.107529,108.968262 
	C98.978622,109.434448 98.778687,109.532761 98.329063,109.410934 
	C98.205101,108.811333 98.330826,108.431870 98.759003,107.953323 
z"/>
<path fill="#965959" opacity="1.000000" stroke="none" 
	d="
M58.474796,120.655334 
	C58.139755,120.569031 57.874786,120.382996 57.576771,119.875473 
	C57.473656,119.653725 57.739655,119.298782 58.095184,119.253403 
	C58.711475,119.409843 58.905922,119.662666 58.887203,120.132980 
	C58.740341,120.299477 58.474796,120.655334 58.474796,120.655334 
z"/>
<path fill="#965959" opacity="1.000000" stroke="none" 
	d="
M59.475346,121.654503 
	C59.140663,121.568748 58.875885,121.383263 58.577900,120.876694 
	C58.474796,120.655334 58.740341,120.299477 59.095745,120.253906 
	C59.711636,120.410004 59.906151,120.662498 59.887829,121.132278 
	C59.740963,121.298737 59.475346,121.654503 59.475346,121.654503 
z"/>
<path fill="#965959" opacity="1.000000" stroke="none" 
	d="
M69.485199,131.614197 
	C69.148232,131.533920 68.881561,131.351135 68.581421,130.843994 
	C68.477646,130.622177 68.745003,130.285568 69.097618,130.247086 
	C69.709892,130.410095 69.905891,130.661255 69.894485,131.120483 
	C69.750755,131.278854 69.485199,131.614197 69.485199,131.614197 
z"/>
<path fill="#965959" opacity="1.000000" stroke="none" 
	d="
M60.476585,122.650444 
	C60.142159,122.565453 59.877281,122.380783 59.578648,121.875458 
	C59.475346,121.654503 59.740963,121.298737 60.096451,121.253006 
	C60.712444,121.408684 60.907455,121.660782 60.889984,122.129654 
	C60.743004,122.295753 60.476585,122.650444 60.476585,122.650444 
z"/>
<path fill="#965959" opacity="1.000000" stroke="none" 
	d="
M61.483418,123.646347 
	C61.147072,123.563255 60.880692,123.379044 60.580429,122.872086 
	C60.476585,122.650444 60.743004,122.295753 61.098587,122.250366 
	C61.714619,122.406319 61.909885,122.658211 61.893623,123.126221 
	C61.747284,123.291809 61.483418,123.646347 61.483418,123.646347 
z"/>
<path fill="#965959" opacity="1.000000" stroke="none" 
	d="
M62.531605,124.381462 
	C62.063145,124.440125 61.830730,124.281578 61.570717,123.840942 
	C61.483418,123.646347 61.747284,123.291809 62.102043,123.247597 
	C62.717552,123.405388 62.911114,123.658730 63.037487,123.963402 
	C63.037487,123.963402 62.707958,124.251732 62.531605,124.381462 
z"/>
<path fill="#965959" opacity="1.000000" stroke="none" 
	d="
M70.591782,132.359695 
	C70.131447,132.418243 69.883766,132.257324 69.588486,131.812439 
	C69.485199,131.614197 69.750755,131.278854 70.103195,131.238205 
	C70.715149,131.396179 70.912483,131.644257 71.047646,131.941772 
	C71.047646,131.941772 70.748726,132.225937 70.591782,132.359695 
z"/>
<path fill="#F6DDDD" opacity="1.000000" stroke="none" 
	d="
M71.128693,152.987183 
	C71.812813,152.249939 72.421013,151.412018 73.211548,150.815857 
	C73.637665,150.494492 74.375961,150.587082 74.991287,151.240906 
	C75.051643,155.543411 75.094131,159.097916 75.136620,162.652405 
	C75.752701,162.624054 76.368790,162.595703 76.984871,162.567337 
	C76.984871,158.731110 76.984871,154.894867 76.984871,151.058640 
	C80.450470,147.455139 85.617851,148.412903 88.604149,153.591949 
	C86.110390,152.748383 83.963776,151.589478 81.817169,150.430573 
	C81.430641,150.813339 81.044121,151.196091 80.657600,151.578857 
	C81.052696,155.722992 81.447800,159.867142 81.842896,164.011276 
	C77.760223,167.561142 77.760223,167.561142 73.591278,165.772278 
	C72.097298,165.772278 70.603317,165.772278 69.068726,165.190399 
	C69.039703,164.441620 69.051300,164.274719 69.482979,164.050629 
	C70.311607,160.324692 70.720146,156.655945 71.128693,152.987183 
z"/>
<path fill="#DD2222" opacity="1.000000" stroke="none" 
	d="
M81.902313,163.999939 
	C81.447800,159.867142 81.052696,155.722992 80.657600,151.578857 
	C81.044121,151.196091 81.430641,150.813339 81.817169,150.430573 
	C83.963776,151.589478 86.110390,152.748383 88.623299,153.952026 
	C89.478943,154.591263 89.968285,155.185760 90.828255,156.237366 
	C92.022865,157.051666 92.846855,157.408844 93.670837,157.766037 
	C93.794022,157.188583 93.917206,156.611115 94.040405,156.033661 
	C94.714714,153.952789 95.490677,150.051514 96.047066,150.082581 
	C100.058159,150.306534 97.954315,153.702301 98.238930,155.770844 
	C98.587090,158.301132 98.321854,160.915833 98.321854,165.178192 
	C94.876907,162.979965 92.687904,161.583145 90.143234,159.849289 
	C89.631226,159.253082 89.405518,159.157547 89.110443,159.225616 
	C89.110443,159.225616 89.014236,159.011093 88.762589,158.649384 
	C87.505920,157.813248 86.500900,157.338806 85.878944,157.045212 
	C83.543823,159.461044 87.695541,164.172150 82.002167,164.102615 
	C82.002167,164.102615 81.961723,163.988617 81.902313,163.999939 
z"/>
<path fill="#E84848" opacity="1.000000" stroke="none" 
	d="
M48.819401,164.269714 
	C48.516430,163.134033 48.213459,161.998367 47.739796,160.240494 
	C47.315403,158.859406 47.061703,158.100525 46.862946,156.985321 
	C46.933350,156.389481 46.948811,156.149948 47.136929,155.568100 
	C47.301105,154.743668 47.292618,154.261520 47.310089,153.598419 
	C47.336052,153.417450 47.297737,153.052948 47.311935,152.749329 
	C44.832809,152.651138 42.339481,152.856567 39.802048,153.264313 
	C39.757946,153.466614 39.799664,153.878586 39.689056,154.218353 
	C39.731602,155.007614 39.884750,155.457123 40.026054,156.168411 
	C40.013611,156.604889 40.013016,156.779572 39.723034,157.148407 
	C38.255409,159.534668 37.077171,161.726807 35.898933,163.918930 
	C35.045483,159.610535 34.192032,155.302124 33.139301,149.987717 
	C38.959267,149.987717 43.597305,149.590546 48.098003,150.202850 
	C49.676228,150.417572 50.916992,153.112717 52.018341,155.037323 
	C51.461025,155.583237 51.380047,155.827713 51.481895,156.132843 
	C51.794025,157.305389 52.106155,158.477951 52.568596,160.311935 
	C53.199318,164.178146 51.349995,164.626892 48.819401,164.269714 
z"/>
<path fill="#EFC3C3" opacity="1.000000" stroke="none" 
	d="
M29.893902,152.817841 
	C29.000383,153.385178 28.106867,153.952515 26.737043,154.822281 
	C29.940054,155.001236 33.968575,153.968689 33.078758,159.054062 
	C32.397873,162.945389 30.198042,165.249573 25.979025,165.009949 
	C24.171608,164.907303 22.367933,164.738724 20.738178,164.310135 
	C23.936142,163.622025 26.958483,163.223892 29.980825,162.825760 
	C29.908060,162.222336 29.835295,161.618912 29.762531,161.015472 
	C28.364143,161.238159 26.952585,161.399368 25.569950,161.695587 
	C22.054728,162.448639 19.610561,161.875351 19.968891,157.484009 
	C20.089195,156.009689 20.108389,154.527115 20.134678,153.029633 
	C20.095556,153.010956 20.045746,153.081924 20.495087,153.048340 
	C23.927584,152.949127 26.910744,152.883484 29.893902,152.817841 
z"/>
<path fill="#D80E0E" opacity="1.000000" stroke="none" 
	d="
M141.308441,161.974670 
	C141.252121,158.618454 141.195801,155.262253 141.246613,151.289841 
	C141.353760,150.673645 141.313202,150.201904 141.313202,150.201904 
	C142.599747,150.147552 143.886292,150.093185 145.565430,150.421356 
	C145.965652,151.509888 145.973267,152.215881 145.812607,153.013733 
	C145.558105,153.418091 145.471893,153.730576 145.358978,154.411652 
	C145.696716,155.060333 146.061127,155.340408 146.796478,155.766083 
	C149.114960,155.613876 151.062500,155.316071 153.018936,155.024353 
	C153.027832,155.030426 153.049515,155.034241 153.259216,155.011017 
	C153.468933,154.987778 153.876434,154.878159 154.140656,154.994659 
	C154.892975,155.398346 155.381088,155.685516 155.869186,155.972702 
	C156.593048,158.055344 157.316925,160.137970 157.671814,162.714264 
	C156.525955,163.505280 155.749084,163.802643 154.972214,164.100006 
	C154.972214,164.100006 154.956818,164.000320 154.862915,163.777222 
	C154.589569,163.265808 154.333496,163.087387 154.000854,163.018845 
	C153.952026,162.263123 153.903214,161.507416 153.616867,160.181595 
	C152.943176,159.560989 152.507019,159.510468 152.070847,159.459961 
	C150.968430,159.398712 149.866013,159.337479 148.011322,159.205200 
	C146.236694,159.895279 145.221512,160.666306 144.189514,161.414154 
	C143.452530,161.948212 142.692978,162.451172 141.923294,162.753723 
	C141.824615,162.225204 141.626389,162.036926 141.308441,161.974670 
z"/>
<path fill="#EC3434" opacity="1.000000" stroke="none" 
	d="
M54.758446,159.935349 
	C54.780849,158.446762 54.818810,156.958237 54.822628,155.469589 
	C54.832603,151.578201 56.892513,149.651505 60.664017,149.676331 
	C63.082737,149.692230 65.499107,150.064560 67.737686,150.630524 
	C67.045143,151.285339 66.531433,151.586731 65.581314,151.937607 
	C64.317017,151.996078 63.342976,151.728180 62.691769,152.071899 
	C61.347420,152.781479 60.175186,153.817154 58.932152,154.718689 
	C60.149151,155.455978 61.295517,156.383362 62.605587,156.870178 
	C63.645695,157.256683 64.886169,157.103973 66.035660,157.497528 
	C66.007622,158.212387 65.981590,158.620407 65.532425,158.994629 
	C61.905750,159.912842 58.702206,160.864853 55.323761,161.868851 
	C55.291348,161.757980 55.024899,160.846664 54.758446,159.935349 
z"/>
<path fill="#EA2222" opacity="1.000000" stroke="none" 
	d="
M161.946411,163.465805 
	C161.946411,163.465805 161.629654,163.373795 161.465622,163.235229 
	C161.301590,163.096664 161.080292,162.954300 161.080292,162.954300 
	C161.160416,158.842926 161.240555,154.731552 161.831100,150.667740 
	C163.609161,151.120117 164.876801,151.524918 165.913742,152.082123 
	C165.504028,152.549057 165.324997,152.863617 165.064301,153.463074 
	C165.226196,154.229813 165.469772,154.711639 166.013702,155.350098 
	C166.973251,155.662949 167.632446,155.819168 168.291641,155.975388 
	C167.248917,157.190674 166.206207,158.405960 165.163483,159.621231 
	C165.308548,160.086746 165.453598,160.552261 165.598648,161.017776 
	C168.107193,161.017776 170.615738,161.017776 173.803574,161.028137 
	C174.657196,161.077042 174.831543,161.115585 175.078568,161.463776 
	C175.277267,161.943970 175.403259,162.114517 175.529236,162.285049 
	C175.529236,162.285049 175.428162,162.346619 174.934052,162.190308 
	C170.275436,162.511261 166.110916,162.988525 161.946411,163.465805 
z"/>
<path fill="#E83A3A" opacity="1.000000" stroke="none" 
	d="
M116.475471,152.518814 
	C116.475471,152.518814 115.996559,152.381042 115.384109,152.598633 
	C111.842361,153.216736 108.913063,153.617218 105.915268,154.269577 
	C105.943291,154.854141 106.039818,155.186829 106.108231,155.893951 
	C106.072044,156.518234 106.063980,156.768066 106.044861,157.207367 
	C106.033798,157.396866 106.011131,157.775818 105.624878,157.856888 
	C104.719765,158.036362 104.200897,158.134781 103.682022,158.233185 
	C102.602646,156.667450 101.523270,155.101700 99.692497,152.445969 
	C102.329338,151.475571 104.617928,150.215561 107.043114,149.841766 
	C110.418793,149.321472 113.896759,149.464752 117.784676,149.738464 
	C118.156731,150.756012 118.075050,151.359085 117.993378,151.962173 
	C117.993378,151.962173 117.980118,151.945343 117.699707,151.966064 
	C117.104683,152.164124 116.790077,152.341476 116.475471,152.518814 
z"/>
<path fill="#D7BEBE" opacity="1.000000" stroke="none" 
	d="
M119.108963,160.159576 
	C117.530235,161.753616 116.163399,164.336029 114.327316,164.729675 
	C110.831383,165.479156 107.058022,165.147537 103.417625,164.945221 
	C100.310532,164.772552 100.073814,163.233017 102.813759,161.396255 
	C106.990479,161.421295 110.521004,161.185410 114.029877,160.963058 
	C114.008209,160.976608 113.991600,161.024155 114.253792,161.012421 
	C114.690285,160.985336 114.864586,160.969955 115.388748,160.911499 
	C116.862053,160.632141 117.985504,160.395859 119.108963,160.159576 
z"/>
<path fill="#E3C3C3" opacity="1.000000" stroke="none" 
	d="
M54.430870,159.945755 
	C55.024899,160.846664 55.291348,161.757980 55.323761,161.868851 
	C58.702206,160.864853 61.905750,159.912842 65.661041,159.263748 
	C66.418808,160.074249 66.624817,160.581833 66.830833,161.089417 
	C63.882256,161.076141 61.175480,160.418472 58.760399,163.796371 
	C58.053307,164.785370 52.815933,169.662369 48.918396,164.600708 
	C51.349995,164.626892 53.199318,164.178146 52.765526,160.582062 
	C53.242531,160.112534 53.672913,160.034348 54.430870,159.945755 
z"/>
<path fill="#EB1515" opacity="1.000000" stroke="none" 
	d="
M66.892395,161.306534 
	C66.624817,160.581833 66.418808,160.074249 66.084175,159.297546 
	C65.981590,158.620407 66.007622,158.212387 66.329666,157.348511 
	C66.423042,155.224472 66.220383,153.556305 66.017731,151.888138 
	C66.531433,151.586731 67.045143,151.285339 67.868759,150.942902 
	C69.072060,151.399200 69.965439,151.896515 70.993759,152.690506 
	C70.720146,156.655945 70.311607,160.324692 69.328514,163.790619 
	C68.168709,163.049454 67.583458,162.511139 66.998199,161.972839 
	C66.998199,161.972839 66.953957,161.523651 66.892395,161.306534 
z"/>
<path fill="#F8BBBB" opacity="1.000000" stroke="none" 
	d="
M166.144440,151.929718 
	C164.876801,151.524918 163.609161,151.120117 162.158752,150.418884 
	C166.785599,149.570953 171.595184,149.019424 176.404785,148.467896 
	C176.216797,149.639664 176.028809,150.811432 175.046661,151.992493 
	C171.549820,151.977783 168.847122,151.953751 166.144440,151.929718 
z"/>
<path fill="#EB4D4D" opacity="1.000000" stroke="none" 
	d="
M145.980896,152.921875 
	C145.973267,152.215881 145.965652,151.509888 145.952057,150.450119 
	C148.577255,149.962799 151.245941,149.491455 153.830460,149.778290 
	C157.330429,150.166718 158.354156,152.745819 156.232819,155.888367 
	C155.381088,155.685516 154.892975,155.398346 154.084900,154.616562 
	C151.170258,153.721924 148.575577,153.321899 145.980896,152.921875 
z"/>
<path fill="#C61A1A" opacity="1.000000" stroke="none" 
	d="
M20.173798,153.048325 
	C20.108389,154.527115 20.089195,156.009689 19.968891,157.484009 
	C19.610561,161.875351 22.054728,162.448639 25.569950,161.695587 
	C26.952585,161.399368 28.364143,161.238159 29.762531,161.015472 
	C29.835295,161.618912 29.908060,162.222336 29.980825,162.825760 
	C26.958483,163.223892 23.936142,163.622025 20.480518,163.995667 
	C19.860584,163.691925 19.673935,163.412628 19.165052,162.766815 
	C18.231480,161.957169 17.620138,161.514038 17.008793,161.070923 
	C16.881609,160.627655 16.754429,160.184387 16.985516,159.171967 
	C18.287121,156.751312 19.230459,154.899826 20.173798,153.048325 
z"/>
<path fill="#E3C3C3" opacity="1.000000" stroke="none" 
	d="
M36.139168,164.216309 
	C37.077171,161.726807 38.255409,159.534668 40.149277,157.194092 
	C42.845940,157.144318 44.826969,157.242981 46.808002,157.341629 
	C47.061703,158.100525 47.315403,158.859406 47.580063,159.922638 
	C45.448650,160.226959 43.306271,160.226959 41.163887,160.226959 
	C41.360844,160.596390 41.557800,160.965820 41.754757,161.335251 
	C39.962971,162.394730 38.171188,163.454193 36.139168,164.216309 
z"/>
<path fill="#F02C2C" opacity="1.000000" stroke="none" 
	d="
M121.898079,149.975891 
	C125.015198,149.073120 126.233047,150.310242 126.039078,153.458603 
	C125.906654,155.608063 126.047638,157.774399 125.750290,160.417419 
	C124.267555,160.523911 123.100922,160.146179 121.934280,159.768448 
	C121.800026,157.814651 121.665779,155.860840 121.572266,153.137909 
	C121.708031,151.571136 121.803055,150.773514 121.898079,149.975891 
z"/>
<path fill="#AE3E3E" opacity="1.000000" stroke="none" 
	d="
M121.911850,160.172546 
	C123.100922,160.146179 124.267555,160.523911 125.801819,160.864838 
	C126.169434,160.828018 126.099380,160.873550 126.151688,161.108521 
	C126.502525,161.549759 126.801048,161.756027 127.516380,161.980774 
	C129.910706,161.557693 131.888214,161.116135 133.865723,160.674576 
	C133.865723,160.674576 133.831085,160.867722 134.084808,160.789795 
	C135.525436,160.167053 136.712341,159.622253 137.899246,159.077454 
	C137.112991,160.562317 136.696426,162.584244 135.469452,163.428848 
	C132.125259,165.730774 124.512718,163.915024 121.911850,160.172546 
z"/>
<path fill="#EC4E4E" opacity="1.000000" stroke="none" 
	d="
M20.134678,153.029633 
	C19.230459,154.899826 18.287121,156.751312 17.019249,158.825226 
	C15.564608,151.618484 16.962927,149.902588 24.127008,149.932312 
	C25.457262,149.937836 26.787476,149.952820 28.370617,150.309723 
	C26.337830,151.041855 24.037319,151.360214 21.775932,151.856750 
	C21.140184,151.996338 20.619312,152.659119 20.045746,153.081924 
	C20.045746,153.081924 20.095556,153.010956 20.134678,153.029633 
z"/>
<path fill="#F14646" opacity="1.000000" stroke="none" 
	d="
M137.968567,158.630783 
	C136.712341,159.622253 135.525436,160.167053 133.997101,160.745789 
	C134.196243,157.597000 134.736801,154.414261 135.941132,151.093658 
	C137.044754,150.975845 137.484589,150.995926 137.924423,151.016006 
	C137.962250,153.405380 138.000076,155.794739 137.968567,158.630783 
z"/>
<path fill="#F6DDDD" opacity="1.000000" stroke="none" 
	d="
M82.038109,164.472443 
	C87.695541,164.172150 83.543823,159.461044 85.878944,157.045212 
	C86.500900,157.338806 87.505920,157.813248 88.648148,158.622528 
	C88.189278,160.480179 87.606270,162.008270 86.992828,163.524048 
	C86.537445,164.649261 86.042564,165.758484 85.565269,166.874832 
	C84.401535,166.197311 83.237793,165.519791 82.038109,164.472443 
z"/>
<path fill="#F00B0B" opacity="1.000000" stroke="none" 
	d="
M76.658554,151.019623 
	C76.984871,154.894867 76.984871,158.731110 76.984871,162.567337 
	C76.368790,162.595703 75.752701,162.624054 75.136620,162.652405 
	C75.094131,159.097916 75.051643,155.543411 75.016403,151.538147 
	C75.459846,151.051788 75.896042,151.016205 76.658554,151.019623 
z"/>
<path fill="#C61A1A" opacity="1.000000" stroke="none" 
	d="
M20.495087,153.048340 
	C20.619312,152.659119 21.140184,151.996338 21.775932,151.856750 
	C24.037319,151.360214 26.337830,151.041855 28.827147,150.336166 
	C29.889193,149.935104 30.747618,149.853897 31.606041,149.772705 
	C31.154146,150.651260 30.702253,151.529816 30.072130,152.613113 
	C26.910744,152.883484 23.927584,152.949127 20.495087,153.048340 
z"/>
<path fill="#FAE9E9" opacity="1.000000" stroke="none" 
	d="
M106.136345,155.519531 
	C106.039818,155.186829 105.943291,154.854141 106.371178,154.270630 
	C109.934914,154.023163 112.974220,154.026535 116.013535,154.029907 
	C116.019112,154.365463 116.024689,154.701019 115.754440,155.397217 
	C115.299950,155.834076 115.121284,155.910309 114.518158,155.859985 
	C111.441238,155.662140 108.788788,155.590836 106.136345,155.519531 
z"/>
<path fill="#F2D6D6" opacity="1.000000" stroke="none" 
	d="
M141.943481,162.967987 
	C142.692978,162.451172 143.452530,161.948212 144.189514,161.414154 
	C145.221512,160.666306 146.236694,159.895279 147.602814,159.288544 
	C147.348221,160.381454 146.437164,161.249756 146.207809,162.271133 
	C145.384384,165.937912 143.528488,165.687515 141.276794,163.490204 
	C141.621872,163.064072 141.782669,163.016037 141.943481,162.967987 
z"/>
<path fill="#EBDADA" opacity="1.000000" stroke="none" 
	d="
M160.685638,162.958832 
	C161.080292,162.954300 161.301590,163.096664 161.300842,163.228455 
	C159.784714,166.297379 158.330139,169.494324 155.003952,164.462769 
	C155.749084,163.802643 156.525955,163.505280 157.611786,163.097412 
	C158.710800,162.979050 159.500900,162.971207 160.685638,162.958832 
z"/>
<path fill="#CA6767" opacity="1.000000" stroke="none" 
	d="
M162.330002,163.748825 
	C166.110916,162.988525 170.275436,162.511261 174.876770,162.205124 
	C175.039978,162.872284 174.766357,163.368317 173.993439,164.035614 
	C173.331253,164.282257 173.168381,164.357635 173.005493,164.433014 
	C169.574860,164.299286 166.144226,164.165558 162.330002,163.748825 
z"/>
<path fill="#EB2A2A" opacity="1.000000" stroke="none" 
	d="
M114.942627,155.986542 
	C115.121284,155.910309 115.299950,155.834076 115.748886,155.648911 
	C117.032188,156.839813 118.045219,158.139633 119.083611,159.799530 
	C117.985504,160.395859 116.862053,160.632141 115.369438,160.583038 
	C114.944977,159.649582 114.889679,159.001511 114.854156,158.032654 
	C114.876495,157.497650 114.879059,157.283417 114.910828,156.799316 
	C114.940910,156.348465 114.941772,156.167496 114.942627,155.986542 
z"/>
<path fill="#F7E2E2" opacity="1.000000" stroke="none" 
	d="
M168.388489,156.022766 
	C167.632446,155.819168 166.973251,155.662949 166.099030,155.063324 
	C165.931610,154.426559 165.979233,154.233200 166.451721,154.023193 
	C169.256104,153.715408 171.635651,153.424240 174.246765,153.052292 
	C174.478348,152.971512 174.968597,152.954926 174.968597,152.954926 
	C174.983459,153.409698 174.998322,153.864471 174.590332,154.640961 
	C172.345306,155.332184 170.523132,155.701691 168.700943,156.071198 
	C168.700943,156.071198 168.485321,156.070145 168.388489,156.022766 
z"/>
<path fill="#F5D7D7" opacity="1.000000" stroke="none" 
	d="
M121.660034,150.038635 
	C121.803055,150.773514 121.708031,151.571136 121.451324,152.737030 
	C120.386269,152.751343 119.482887,152.397369 118.286438,152.002777 
	C118.075050,151.359085 118.156731,150.756012 118.269333,149.696732 
	C119.340828,149.527481 120.381409,149.814438 121.660034,150.038635 
z"/>
<path fill="#EA4746" opacity="1.000000" stroke="none" 
	d="
M114.051537,160.949509 
	C110.521004,161.185410 106.990479,161.421295 103.190834,161.336487 
	C102.921722,161.015793 103.398140,160.877274 104.087570,160.882996 
	C107.868515,160.908997 110.960030,160.929245 114.051537,160.949509 
z"/>
<path fill="#DAC7C7" opacity="1.000000" stroke="none" 
	d="
M115.965820,153.634781 
	C112.974220,154.026535 109.934914,154.023163 106.439682,154.018768 
	C108.913063,153.617218 111.842361,153.216736 115.149094,152.681442 
	C115.657059,152.777664 115.787582,153.008667 115.965820,153.634781 
z"/>
<path fill="#AF5858" opacity="1.000000" stroke="none" 
	d="
M175.028595,152.714874 
	C174.968597,152.954926 174.478348,152.971512 173.806610,153.000565 
	C170.778992,153.091629 168.423126,153.153656 165.837662,153.188370 
	C165.608078,153.161072 165.145981,153.178162 165.145981,153.178162 
	C165.324997,152.863617 165.504028,152.549057 165.913742,152.082123 
	C168.847122,151.953751 171.549820,151.977783 174.711700,151.994324 
	C175.170914,151.986862 175.088593,152.474823 175.028595,152.714874 
z"/>
<path fill="#BFA0A0" opacity="1.000000" stroke="none" 
	d="
M103.766663,158.422913 
	C104.200897,158.134781 104.719765,158.036362 106.060448,157.941742 
	C109.230537,158.058884 111.578812,158.172241 113.928505,158.501862 
	C113.929924,158.718109 113.882164,159.147964 113.437332,159.104675 
	C109.993874,159.041565 106.995239,159.021759 103.996605,159.001938 
	C103.996605,159.001938 103.851295,158.612656 103.766663,158.422913 
z"/>
<path fill="#EBECEC" opacity="1.000000" stroke="none" 
	d="
M103.986763,159.226578 
	C106.995239,159.021759 109.993874,159.041565 113.475647,159.296417 
	C113.958778,159.531479 113.845673,159.906525 113.401398,159.933228 
	C109.957924,159.940140 106.958717,159.920349 103.959518,159.900574 
	C103.959518,159.900574 103.976921,159.451218 103.986763,159.226578 
z"/>
<path fill="#FABABA" opacity="1.000000" stroke="none" 
	d="
M103.919472,160.099258 
	C106.958717,159.920349 109.957924,159.940140 113.444901,160.211884 
	C113.952316,160.650620 113.971954,160.837387 113.991600,161.024155 
	C113.991600,161.024155 114.008209,160.976608 114.029877,160.963058 
	C110.960030,160.929245 107.868515,160.908997 104.319832,160.795837 
	C103.862656,160.702942 103.879425,160.297943 103.919472,160.099258 
z"/>
<path fill="#F5D7D7" opacity="1.000000" stroke="none" 
	d="
M138.309860,151.002838 
	C137.484589,150.995926 137.044754,150.975845 136.283417,150.880707 
	C137.519653,150.495834 139.077362,150.186035 140.974152,150.039062 
	C141.313202,150.201904 141.353760,150.673645 141.180954,150.835480 
	C140.237198,150.994766 139.466248,150.992203 138.309860,151.002838 
z"/>
<path fill="#F14646" opacity="1.000000" stroke="none" 
	d="
M133.434357,160.681213 
	C131.888214,161.116135 129.910706,161.557693 127.470764,161.745422 
	C127.008339,161.491577 126.997597,161.012131 126.997597,161.012131 
	C128.999405,160.904037 131.001205,160.795944 133.434357,160.681213 
z"/>
<path fill="#EF8D8E" opacity="1.000000" stroke="none" 
	d="
M169.112457,156.056458 
	C170.523132,155.701691 172.345306,155.332184 174.581833,154.982193 
	C173.172104,155.348373 171.348022,155.695053 169.112457,156.056458 
z"/>
<path fill="#EBDADA" opacity="1.000000" stroke="none" 
	d="
M175.005875,161.154129 
	C174.831543,161.115585 174.657196,161.077042 174.229553,160.951508 
	C174.593353,160.302948 175.210464,159.741364 175.827576,159.179764 
	C176.041519,159.662155 176.255447,160.144547 175.987488,160.819885 
	C175.339020,161.059906 175.172455,161.107025 175.005875,161.154129 
z"/>
<path fill="#EEBCBC" opacity="1.000000" stroke="none" 
	d="
M93.659088,156.016342 
	C93.917206,156.611115 93.794022,157.188583 93.670837,157.766037 
	C92.846855,157.408844 92.022865,157.051666 91.095245,156.360168 
	C91.753670,156.016922 92.515717,156.007965 93.659088,156.016342 
z"/>
<path fill="#E3C3C3" opacity="1.000000" stroke="none" 
	d="
M66.942192,162.335693 
	C67.583458,162.511139 68.168709,163.049454 68.908424,163.847794 
	C69.051300,164.274719 69.039703,164.441620 69.010513,164.859863 
	C68.290665,164.306961 67.588425,163.502762 66.942192,162.335693 
z"/>
<path fill="#EFC3C3" opacity="1.000000" stroke="none" 
	d="
M17.030216,161.392456 
	C17.620138,161.514038 18.231480,161.957169 18.921337,162.681992 
	C18.350447,162.547134 17.701040,162.130554 17.030216,161.392456 
z"/>
<path fill="#F2D6D6" opacity="1.000000" stroke="none" 
	d="
M152.177704,159.642380 
	C152.507019,159.510468 152.943176,159.560989 153.431885,159.851059 
	C153.084457,160.002014 152.684494,159.913406 152.177704,159.642380 
z"/>
<path fill="#CA6767" opacity="1.000000" stroke="none" 
	d="
M175.078568,161.463776 
	C175.172455,161.107025 175.339020,161.059906 175.765381,161.009857 
	C175.997131,161.337906 175.969086,161.668884 175.735138,162.142456 
	C175.403259,162.114517 175.277267,161.943970 175.078568,161.463776 
z"/>
<path fill="#F02C2C" opacity="1.000000" stroke="none" 
	d="
M126.778931,160.883881 
	C126.997597,161.012131 127.008339,161.491577 127.053955,161.726929 
	C126.801048,161.756027 126.502525,161.549759 126.129723,161.072998 
	C126.223724,160.786865 126.391998,160.771240 126.778931,160.883881 
z"/>
<path fill="#EB4D4D" opacity="1.000000" stroke="none" 
	d="
M141.923294,162.753723 
	C141.782669,163.016037 141.621872,163.064072 141.209610,163.125305 
	C140.969955,162.930359 140.981750,162.722229 141.150986,162.244385 
	C141.626389,162.036926 141.824615,162.225204 141.923294,162.753723 
z"/>
<path fill="#F2D6D6" opacity="1.000000" stroke="none" 
	d="
M154.042511,163.259689 
	C154.333496,163.087387 154.589569,163.265808 154.813751,163.788422 
	C154.495895,164.003586 154.237808,163.829514 154.042511,163.259689 
z"/>
<path fill="#EBDADA" opacity="1.000000" stroke="none" 
	d="
M173.129425,164.545685 
	C173.168381,164.357635 173.331253,164.282257 173.763153,164.217621 
	C173.772568,164.371689 173.512955,164.515015 173.129425,164.545685 
z"/>
<path fill="#DAC7C7" opacity="1.000000" stroke="none" 
	d="
M116.777054,152.624420 
	C116.790077,152.341476 117.104683,152.164124 117.692909,151.957764 
	C117.670570,152.195847 117.374603,152.462936 116.777054,152.624420 
z"/>
<path fill="#E3C3C3" opacity="1.000000" stroke="none" 
	d="
M51.651909,156.054169 
	C51.380047,155.827713 51.461025,155.583237 51.926987,155.358124 
	C52.134064,155.586426 52.031654,155.805969 51.651909,156.054169 
z"/>
<path fill="#F6DDDD" opacity="1.000000" stroke="none" 
	d="
M89.157242,159.406311 
	C89.405518,159.157547 89.631226,159.253082 89.818344,159.703888 
	C89.574097,159.917999 89.359070,159.815155 89.157242,159.406311 
z"/>
<path fill="#FBF2F2" opacity="1.000000" stroke="none" 
	d="
M92.579597,46.287514 
	C93.985664,46.572670 94.918365,46.895504 96.337944,47.472519 
	C112.551208,63.201019 128.277603,78.675339 144.003998,94.149658 
	C141.759903,97.127663 139.556931,100.137939 137.255142,103.070648 
	C136.025589,104.637222 134.577301,106.030441 133.313904,107.572502 
	C131.484406,109.805557 129.840576,109.530357 127.929192,107.581566 
	C116.271156,95.695343 104.502731,83.916840 92.904533,71.972862 
	C89.784035,68.759331 86.386505,67.243065 81.849480,67.362793 
	C76.557281,67.502449 71.248566,66.883339 65.944481,66.825409 
	C64.970802,66.814781 63.985031,67.911140 63.238380,69.183907 
	C70.971954,77.327744 78.471985,84.784210 85.959129,92.594193 
	C85.202484,94.330032 84.674904,95.899658 83.671829,97.057274 
	C81.279236,99.818481 78.495697,102.248878 76.185097,105.070839 
	C74.087662,107.632484 72.835083,107.165100 70.689537,104.959702 
	C65.992172,100.131294 60.903934,95.683159 55.975330,91.079712 
	C51.097919,86.225403 46.220509,81.371101 41.159119,75.894142 
	C40.854397,66.647781 40.617207,58.022186 40.756920,49.402699 
	C40.774841,48.296898 42.752098,47.222858 43.821690,46.134106 
	C59.916538,46.197800 76.011383,46.261494 92.579597,46.287514 
M70.500008,54.019154 
	C63.131222,54.019154 55.762436,54.019154 49.019230,54.019154 
	C49.019230,59.540932 48.962566,64.499763 49.061069,69.455505 
	C49.084240,70.621452 49.259876,72.150246 49.993855,72.879959 
	C57.885082,80.725395 65.902374,88.444038 73.607941,95.928146 
	C74.937363,95.030937 75.961205,94.339958 77.320282,93.422737 
	C70.627220,87.124580 64.235245,81.311386 58.124180,75.216530 
	C56.609104,73.705482 55.345158,71.357117 55.105747,69.263298 
	C54.413116,63.205818 59.716049,58.239616 66.824371,58.013103 
	C71.982811,57.848728 77.202049,57.526985 82.300575,58.103397 
	C87.878021,58.733955 93.160835,60.435215 97.390884,64.778824 
	C107.848824,75.517494 118.546684,86.022552 129.152359,96.617249 
	C129.597000,97.061432 130.084244,97.462982 130.638077,97.962334 
	C131.545380,96.895103 132.372223,95.922516 133.349976,94.772430 
	C121.670662,83.123474 110.130997,71.783058 98.803329,60.234692 
	C94.077332,55.416611 88.909554,52.854343 81.979599,53.927372 
	C78.563522,54.456310 74.997856,54.019154 70.500008,54.019154 
z"/>
<path fill="#921B1B" opacity="1.000000" stroke="none" 
	d="
M144.254608,93.914871 
	C128.277603,78.675339 112.551208,63.201019 96.643425,47.415390 
	C96.669373,46.808468 96.876709,46.512852 97.266937,46.021252 
	C98.967552,46.744545 100.737106,47.409061 101.964355,48.622181 
	C115.438293,61.941040 128.862335,75.311172 142.181122,88.784836 
	C143.379807,89.997467 143.750183,92.028900 144.254608,93.914871 
z"/>
<path fill="#A70202" opacity="1.000000" stroke="none" 
	d="
M71.418335,131.989151 
	C70.912483,131.644257 70.715149,131.396179 70.246933,131.079834 
	C69.905891,130.661255 69.709892,130.410095 69.241898,130.087769 
	C68.904800,129.663361 68.709770,129.410980 68.238754,129.090515 
	C67.896271,128.670181 67.699425,128.419449 67.228851,128.100067 
	C66.894714,127.677292 66.704597,127.422432 66.245895,127.087646 
	C65.924530,126.647865 65.732903,126.391731 65.255989,126.073151 
	C64.903526,125.660141 64.703659,125.412323 64.235527,125.093109 
	C63.901657,124.669006 63.709599,124.414925 63.244041,124.087425 
	C62.911114,123.658730 62.717552,123.405388 62.248383,123.082016 
	C61.909885,122.658211 61.714619,122.406319 61.245567,122.084259 
	C60.907455,121.660782 60.712444,121.408684 60.243317,121.086540 
	C59.906151,120.662498 59.711636,120.410004 59.242607,120.087410 
	C58.905922,119.662666 58.711475,119.409843 58.241947,119.087135 
	C51.405476,112.149918 44.777771,105.333595 37.996597,98.198853 
	C39.653961,98.863853 41.799568,99.503319 43.220970,100.886833 
	C52.040241,109.471008 60.767830,118.153137 69.356705,126.967575 
	C71.449455,129.115295 73.386520,130.245590 76.611954,128.943665 
	C75.245575,129.993088 73.517296,131.014801 71.418335,131.989151 
z"/>
<path fill="#942A2B" opacity="1.000000" stroke="none" 
	d="
M85.972023,92.240677 
	C78.471985,84.784210 70.971954,77.327744 63.443222,69.502510 
	C66.462761,70.864319 69.872528,72.174957 72.478912,74.418777 
	C76.975655,78.289986 81.054222,82.664894 85.128998,86.997055 
	C86.308502,88.251068 86.875885,90.080811 87.398415,91.906616 
	C86.705971,92.191299 86.338997,92.215988 85.972023,92.240677 
z"/>
<path fill="#E06262" opacity="1.000000" stroke="none" 
	d="
M85.959129,92.594200 
	C86.338997,92.215988 86.705971,92.191299 87.331551,92.270355 
	C86.962624,94.110138 86.725677,96.160561 85.631004,97.520584 
	C82.851959,100.973236 79.926949,104.399994 76.554604,107.235596 
	C75.313728,108.278984 71.771255,108.551094 70.787323,107.605347 
	C65.580132,102.600273 60.853596,97.095139 55.967888,91.421524 
	C60.903934,95.683159 65.992172,100.131294 70.689537,104.959702 
	C72.835083,107.165100 74.087662,107.632484 76.185097,105.070839 
	C78.495697,102.248878 81.279236,99.818481 83.671829,97.057274 
	C84.674904,95.899658 85.202484,94.330032 85.959129,92.594200 
z"/>
<path fill="#E06262" opacity="1.000000" stroke="none" 
	d="
M43.717533,45.887863 
	C42.752098,47.222858 40.774841,48.296898 40.756920,49.402699 
	C40.617207,58.022186 40.854397,66.647781 40.920479,75.657509 
	C39.984898,74.788658 38.372932,73.551727 38.341633,72.276009 
	C38.137756,63.966942 38.248753,55.649090 38.358780,47.335461 
	C38.367340,46.688557 39.155231,46.051968 39.855209,45.354645 
	C41.290798,45.413010 42.452087,45.527313 43.717533,45.887863 
z"/>
<path fill="#AF0101" opacity="1.000000" stroke="none" 
	d="
M72.793121,42.769360 
	C71.189651,43.218967 69.330673,43.396118 67.211975,43.308144 
	C68.814049,42.860981 70.675835,42.678944 72.793121,42.769360 
z"/>
<path fill="#AF0101" opacity="1.000000" stroke="none" 
	d="
M86.892471,42.813835 
	C86.457283,43.189999 85.865013,43.339172 85.113083,43.269108 
	C85.547417,42.895527 86.141403,42.741184 86.892471,42.813835 
z"/>
<path fill="#AF0101" opacity="1.000000" stroke="none" 
	d="
M45.876366,42.822716 
	C45.483780,43.333206 44.921429,43.614609 44.024620,43.836040 
	C44.362305,43.381920 45.034447,42.987774 45.876366,42.822716 
z"/>
<path fill="#960808" opacity="1.000000" stroke="none" 
	d="
M103.165359,106.756958 
	C102.551643,107.085396 101.671799,107.137634 100.358574,107.235466 
	C100.916542,107.014290 101.907883,106.747520 103.165359,106.756958 
z"/>
<path fill="#A70202" opacity="1.000000" stroke="none" 
	d="
M22.971272,81.809418 
	C22.610027,82.088203 22.334782,81.957504 22.031487,81.454117 
	C22.278223,81.348495 22.629499,81.454659 22.971272,81.809418 
z"/>
<path fill="#A70202" opacity="1.000000" stroke="none" 
	d="
M35.109322,94.789780 
	C34.650833,94.673103 34.195747,94.170486 33.631599,93.337891 
	C34.052601,93.473221 34.582664,93.938530 35.109322,94.789780 
z"/>
<path fill="#A70202" opacity="1.000000" stroke="none" 
	d="
M24.077477,83.628616 
	C23.674316,83.503838 23.303606,83.066154 22.933573,82.324463 
	C23.326141,82.452202 23.718033,82.883949 24.077477,83.628616 
z"/>
<path fill="#A70202" opacity="1.000000" stroke="none" 
	d="
M28.784679,89.084801 
	C28.528841,88.851059 28.273003,88.617317 27.909311,88.140686 
	C28.445751,88.044052 29.090044,88.190300 29.908648,88.631897 
	C30.082956,88.927246 29.992676,89.007523 29.689896,89.014626 
	C29.186302,89.042755 28.985489,89.063782 28.784679,89.084801 
z"/>
<path fill="#A70202" opacity="1.000000" stroke="none" 
	d="
M32.176525,90.848969 
	C31.953266,90.949326 31.546988,90.809570 31.058239,90.345703 
	C31.315014,90.217339 31.654257,90.413094 32.176525,90.848969 
z"/>
<path fill="#A70202" opacity="1.000000" stroke="none" 
	d="
M77.720245,128.039703 
	C77.806519,128.265106 77.639252,128.549500 77.225876,128.903564 
	C77.142067,128.681717 77.304390,128.390198 77.720245,128.039703 
z"/>
<path fill="#A70202" opacity="1.000000" stroke="none" 
	d="
M30.924332,89.795647 
	C30.977093,90.040001 30.515448,90.209290 30.264194,89.879929 
	C30.006187,89.369545 29.999432,89.188530 29.992676,89.007523 
	C29.992676,89.007523 30.082956,88.927246 30.130466,88.886566 
	C30.474785,89.016510 30.705984,89.251648 30.924332,89.795647 
z"/>
<path fill="#A70202" opacity="1.000000" stroke="none" 
	d="
M78.719955,127.040207 
	C78.806702,127.266014 78.639977,127.550682 78.226982,127.904594 
	C78.142632,127.682251 78.304550,127.390663 78.719955,127.040207 
z"/>
<path fill="#A70202" opacity="1.000000" stroke="none" 
	d="
M79.718353,126.039452 
	C79.806190,126.266495 79.640266,126.551552 79.227776,126.905014 
	C79.142342,126.681442 79.303459,126.389450 79.718353,126.039452 
z"/>
<path fill="#A70202" opacity="1.000000" stroke="none" 
	d="
M25.042780,84.891861 
	C24.787683,84.962189 24.503187,84.734306 24.141239,84.241867 
	C24.380318,84.182755 24.696850,84.388199 25.042780,84.891861 
z"/>
<path fill="#A70202" opacity="1.000000" stroke="none" 
	d="
M80.715797,125.038254 
	C80.803520,125.264595 80.637764,125.549011 80.226715,125.902878 
	C80.141708,125.680328 80.302010,125.388321 80.715797,125.038254 
z"/>
<path fill="#A70202" opacity="1.000000" stroke="none" 
	d="
M85.718613,120.038559 
	C85.804779,120.263611 85.637589,120.547112 85.225235,120.900726 
	C85.141792,120.679558 85.303520,120.388283 85.718613,120.038559 
z"/>
<path fill="#A70202" opacity="1.000000" stroke="none" 
	d="
M81.715416,124.037727 
	C81.802597,124.263809 81.636070,124.546623 81.224808,124.899422 
	C81.140625,124.677757 81.301170,124.386108 81.715416,124.037727 
z"/>
<path fill="#A70202" opacity="1.000000" stroke="none" 
	d="
M86.718819,119.038956 
	C86.804985,119.263901 86.637848,119.547668 86.225433,119.901749 
	C86.141945,119.680634 86.303726,119.389214 86.718819,119.038956 
z"/>
<path fill="#A70202" opacity="1.000000" stroke="none" 
	d="
M84.717224,121.037643 
	C84.803757,121.263115 84.636772,121.546272 84.224915,121.899376 
	C84.141251,121.677986 84.302475,121.386658 84.717224,121.037643 
z"/>
<path fill="#A70202" opacity="1.000000" stroke="none" 
	d="
M83.715508,122.036957 
	C83.803017,122.263428 83.636856,122.546936 83.225800,122.899750 
	C83.141220,122.677368 83.301529,122.385674 83.715508,122.036957 
z"/>
<path fill="#A70202" opacity="1.000000" stroke="none" 
	d="
M82.715149,123.037369 
	C82.802956,123.264221 82.636963,123.547569 82.225967,123.900055 
	C82.141098,123.677414 82.301231,123.385643 82.715149,123.037369 
z"/>
<path fill="#920808" opacity="1.000000" stroke="none" 
	d="
M29.689896,89.014626 
	C29.999432,89.188530 30.006187,89.369545 30.025032,89.822968 
	C29.718906,89.916504 29.400690,89.737633 28.933575,89.321785 
	C28.985489,89.063782 29.186302,89.042755 29.689896,89.014626 
z"/>
<path fill="#F9FAFA" opacity="1.000000" stroke="none" 
	d="
M40.037895,155.906631 
	C39.884750,155.457123 39.731602,155.007614 39.939648,154.213226 
	C40.644573,153.785873 40.905716,153.592133 41.486343,153.256149 
	C43.231915,153.241501 44.575409,153.257812 46.097794,153.463318 
	C46.612507,153.694794 46.948318,153.737091 47.284130,153.779388 
	C47.292618,154.261520 47.301105,154.743668 46.704918,155.536133 
	C44.079460,155.866531 42.058678,155.886581 40.037895,155.906631 
z"/>
<path fill="#AE4C4C" opacity="1.000000" stroke="none" 
	d="
M45.918900,153.274124 
	C44.575409,153.257812 43.231915,153.241501 41.187561,153.140869 
	C40.273186,153.058365 40.059669,153.060196 39.846153,153.062012 
	C42.339481,152.856567 44.832809,152.651138 46.956589,152.746796 
	C46.364323,153.123306 46.141613,153.198715 45.918900,153.274124 
z"/>
<path fill="#EF5454" opacity="1.000000" stroke="none" 
	d="
M40.026054,156.168411 
	C42.058678,155.886581 44.079460,155.866531 46.532257,155.878448 
	C46.948811,156.149948 46.933350,156.389481 46.862946,156.985321 
	C44.826969,157.242981 42.845940,157.144318 40.438660,156.999954 
	C40.013016,156.779572 40.013611,156.604889 40.026054,156.168411 
z"/>
<path fill="#DDB5B5" opacity="1.000000" stroke="none" 
	d="
M39.802048,153.264313 
	C40.059669,153.060196 40.273186,153.058365 40.785484,153.171829 
	C40.905716,153.592133 40.644573,153.785873 40.050255,153.873459 
	C39.799664,153.878586 39.757946,153.466614 39.802048,153.264313 
z"/>
<path fill="#DDB5B5" opacity="1.000000" stroke="none" 
	d="
M46.097794,153.463318 
	C46.141613,153.198715 46.364323,153.123306 46.942387,153.050430 
	C47.297737,153.052948 47.336052,153.417450 47.310089,153.598419 
	C46.948318,153.737091 46.612507,153.694794 46.097794,153.463318 
z"/>
<path fill="#DCB4B4" opacity="1.000000" stroke="none" 
	d="
M145.812622,153.013733 
	C148.575577,153.321899 151.170258,153.721924 153.820679,154.500061 
	C153.876434,154.878159 153.468933,154.987778 152.987885,154.680573 
	C150.133102,154.263260 147.759384,154.153152 145.385666,154.043060 
	C145.471893,153.730576 145.558105,153.418091 145.812622,153.013733 
z"/>
<path fill="#F9F9F9" opacity="1.000000" stroke="none" 
	d="
M145.358978,154.411652 
	C147.759384,154.153152 150.133102,154.263260 152.778168,154.703796 
	C153.049515,155.034241 153.027832,155.030426 152.548492,155.018768 
	C150.187943,155.211578 148.306747,155.416031 146.425552,155.620483 
	C146.061127,155.340408 145.696716,155.060333 145.358978,154.411652 
z"/>
<path fill="#FEC7C7" opacity="1.000000" stroke="none" 
	d="
M146.796478,155.766083 
	C148.306747,155.416031 150.187943,155.211578 152.539581,155.012695 
	C151.062500,155.316071 149.114960,155.613876 146.796478,155.766083 
z"/>
<path fill="#EAC5C5" opacity="1.000000" stroke="none" 
	d="
M65.581314,151.937607 
	C66.220383,153.556305 66.423042,155.224472 66.331688,157.041656 
	C64.886169,157.103973 63.645695,157.256683 62.605587,156.870178 
	C61.295517,156.383362 60.149151,155.455978 58.932152,154.718689 
	C60.175186,153.817154 61.347420,152.781479 62.691769,152.071899 
	C63.342976,151.728180 64.317017,151.996078 65.581314,151.937607 
z"/>
<path fill="#EF8D8E" opacity="1.000000" stroke="none" 
	d="
M165.064301,153.463074 
	C165.145981,153.178162 165.608078,153.161072 165.814545,153.393433 
	C166.020996,153.625809 166.026871,154.039825 166.026871,154.039825 
	C165.979233,154.233200 165.931610,154.426559 165.798676,154.906708 
	C165.469772,154.711639 165.226196,154.229813 165.064301,153.463074 
z"/>
<path fill="#B42A2A" opacity="1.000000" stroke="none" 
	d="
M113.927086,158.285614 
	C111.578812,158.172241 109.230537,158.058884 106.446701,157.860657 
	C106.011131,157.775818 106.033798,157.396866 106.486694,157.200104 
	C109.586937,157.025299 112.234283,157.047256 114.881622,157.069183 
	C114.879059,157.283417 114.876495,157.497650 114.630417,157.974503 
	C114.386909,158.237122 113.927086,158.285614 113.927086,158.285614 
z"/>
<path fill="#D02C2C" opacity="1.000000" stroke="none" 
	d="
M114.910828,156.799316 
	C112.234283,157.047256 109.586937,157.025299 106.497757,157.010620 
	C106.063980,156.768066 106.072044,156.518234 106.108231,155.893951 
	C108.788788,155.590836 111.441238,155.662140 114.518158,155.859985 
	C114.941772,156.167496 114.940910,156.348465 114.910828,156.799316 
z"/>
<path fill="#E27373" opacity="1.000000" stroke="none" 
	d="
M113.928505,158.501862 
	C113.927086,158.285614 114.386909,158.237122 114.610641,158.295273 
	C114.889679,159.001511 114.944977,159.649582 115.019585,160.626129 
	C114.864586,160.969955 114.690285,160.985336 114.253792,161.012421 
	C113.971954,160.837387 113.952316,160.650620 113.889175,160.185181 
	C113.845673,159.906525 113.958778,159.531479 113.920471,159.339722 
	C113.882164,159.147964 113.929924,158.718109 113.928505,158.501862 
z"/>
<path fill="#DAC6C6" opacity="1.000000" stroke="none" 
	d="
M166.451721,154.023193 
	C166.026871,154.039825 166.020996,153.625809 166.044128,153.420746 
	C168.423126,153.153656 170.778992,153.091629 173.575043,153.081345 
	C171.635651,153.424240 169.256104,153.715408 166.451721,154.023193 
z"/>
<path fill="#000000" opacity="1.000000" stroke="none" 
	d="
M70.999939,54.019154 
	C74.997856,54.019154 78.563522,54.456310 81.979599,53.927372 
	C88.909554,52.854343 94.077332,55.416611 98.803329,60.234692 
	C110.130997,71.783058 121.670662,83.123474 133.349976,94.772430 
	C132.372223,95.922516 131.545380,96.895103 130.638077,97.962334 
	C130.084244,97.462982 129.597000,97.061432 129.152359,96.617249 
	C118.546684,86.022552 107.848824,75.517494 97.390884,64.778824 
	C93.160835,60.435215 87.878021,58.733955 82.300575,58.103397 
	C77.202049,57.526985 71.982811,57.848728 66.824371,58.013103 
	C59.716049,58.239616 54.413116,63.205818 55.105747,69.263298 
	C55.345158,71.357117 56.609104,73.705482 58.124180,75.216530 
	C64.235245,81.311386 70.627220,87.124580 77.320282,93.422737 
	C75.961205,94.339958 74.937363,95.030937 73.607941,95.928146 
	C65.902374,88.444038 57.885082,80.725395 49.993855,72.879959 
	C49.259876,72.150246 49.084240,70.621452 49.061069,69.455505 
	C48.962566,64.499763 49.019230,59.540932 49.019230,54.019154 
	C55.762436,54.019154 63.131222,54.019154 70.999939,54.019154 
z"/>
</svg>